<svg xmlns="http://www.w3.org/2000/svg" xmlns:xlink="http://www.w3.org/1999/xlink" width="467.75" height="476.23" viewBox="0 0 467.75 476.23">
  <defs>
    <filter id="Path_167" x="6.849" y="40.955" width="202.59" height="219.31" filterUnits="userSpaceOnUse">
      <feOffset input="SourceAlpha"/>
      <feGaussianBlur stdDeviation="5" result="blur"/>
      <feFlood flood-color="#fff"/>
      <feComposite operator="in" in2="blur"/>
      <feComposite in="SourceGraphic"/>
    </filter>
    <filter id="Path_168" x="163.728" y="163.834" width="56.1" height="68.712" filterUnits="userSpaceOnUse">
      <feOffset input="SourceAlpha"/>
      <feGaussianBlur stdDeviation="5" result="blur-2"/>
      <feFlood flood-color="#fff"/>
      <feComposite operator="in" in2="blur-2"/>
      <feComposite in="SourceGraphic"/>
    </filter>
    <filter id="Path_173" x="183.24" y="247" width="55.486" height="68.712" filterUnits="userSpaceOnUse">
      <feOffset input="SourceAlpha"/>
      <feGaussianBlur stdDeviation="5" result="blur-3"/>
      <feFlood flood-color="#fff"/>
      <feComposite operator="in" in2="blur-3"/>
      <feComposite in="SourceGraphic"/>
    </filter>
    <filter id="Path_174" x="97.233" y="195.946" width="303.806" height="262.06" filterUnits="userSpaceOnUse">
      <feOffset input="SourceAlpha"/>
      <feGaussianBlur stdDeviation="5" result="blur-4"/>
      <feFlood flood-color="#fff"/>
      <feComposite operator="in" in2="blur-4"/>
      <feComposite in="SourceGraphic"/>
    </filter>
    <filter id="Path_169" x="184.714" y="82.484" width="260.371" height="147.148" filterUnits="userSpaceOnUse">
      <feOffset input="SourceAlpha"/>
      <feGaussianBlur stdDeviation="5" result="blur-5"/>
      <feFlood flood-color="#fff"/>
      <feComposite operator="in" in2="blur-5"/>
      <feComposite in="SourceGraphic"/>
    </filter>
    <filter id="Path_170" x="291.33" y="123.646" width="37.939" height="46.374" filterUnits="userSpaceOnUse">
      <feOffset input="SourceAlpha"/>
      <feGaussianBlur stdDeviation="5" result="blur-6"/>
      <feFlood flood-color="#fff"/>
      <feComposite operator="in" in2="blur-6"/>
      <feComposite in="SourceGraphic"/>
    </filter>
    <filter id="Path_171" x="0" y="222.798" width="69.314" height="76.792" filterUnits="userSpaceOnUse">
      <feOffset input="SourceAlpha"/>
      <feGaussianBlur stdDeviation="5" result="blur-7"/>
      <feFlood flood-color="#fff"/>
      <feComposite operator="in" in2="blur-7"/>
      <feComposite in="SourceGraphic"/>
    </filter>
    <filter id="Path_172" x="16.036" y="229.968" width="229.457" height="148.072" filterUnits="userSpaceOnUse">
      <feOffset input="SourceAlpha"/>
      <feGaussianBlur stdDeviation="5" result="blur-8"/>
      <feFlood flood-color="#fff"/>
      <feComposite operator="in" in2="blur-8"/>
      <feComposite in="SourceGraphic"/>
    </filter>
    <filter id="Path_175" x="57.193" y="343.688" width="65.229" height="70.99" filterUnits="userSpaceOnUse">
      <feOffset input="SourceAlpha"/>
      <feGaussianBlur stdDeviation="5" result="blur-9"/>
      <feFlood flood-color="#fff"/>
      <feComposite operator="in" in2="blur-9"/>
      <feComposite in="SourceGraphic"/>
    </filter>
    <filter id="Path_176" x="204.374" y="390.32" width="86.231" height="85.91" filterUnits="userSpaceOnUse">
      <feOffset input="SourceAlpha"/>
      <feGaussianBlur stdDeviation="5" result="blur-10"/>
      <feFlood flood-color="#fff"/>
      <feComposite operator="in" in2="blur-10"/>
      <feComposite in="SourceGraphic"/>
    </filter>
    <filter id="Path_177" x="230.756" y="226.394" width="117.055" height="116.248" filterUnits="userSpaceOnUse">
      <feOffset input="SourceAlpha"/>
      <feGaussianBlur stdDeviation="5" result="blur-11"/>
      <feFlood flood-color="#fff"/>
      <feComposite operator="in" in2="blur-11"/>
      <feComposite in="SourceGraphic"/>
    </filter>
    <filter id="Path_178" x="296.493" y="211.78" width="171.257" height="136.438" filterUnits="userSpaceOnUse">
      <feOffset input="SourceAlpha"/>
      <feGaussianBlur stdDeviation="5" result="blur-12"/>
      <feFlood flood-color="#fff"/>
      <feComposite operator="in" in2="blur-12"/>
      <feComposite in="SourceGraphic"/>
    </filter>
    <filter id="Path_179" x="338.574" y="200.907" width="66.573" height="52.403" filterUnits="userSpaceOnUse">
      <feOffset input="SourceAlpha"/>
      <feGaussianBlur stdDeviation="5" result="blur-13"/>
      <feFlood flood-color="#fff"/>
      <feComposite operator="in" in2="blur-13"/>
      <feComposite in="SourceGraphic"/>
    </filter>
    <filter id="Path_180" x="372.259" y="313.628" width="66.458" height="68.967" filterUnits="userSpaceOnUse">
      <feOffset input="SourceAlpha"/>
      <feGaussianBlur stdDeviation="5" result="blur-14"/>
      <feFlood flood-color="#fff"/>
      <feComposite operator="in" in2="blur-14"/>
      <feComposite in="SourceGraphic"/>
    </filter>
    <filter id="Path_181" x="170.713" y="174.166" width="173.094" height="90.305" filterUnits="userSpaceOnUse">
      <feOffset input="SourceAlpha"/>
      <feGaussianBlur stdDeviation="5" result="blur-15"/>
      <feFlood flood-color="#fff"/>
      <feComposite operator="in" in2="blur-15"/>
      <feComposite in="SourceGraphic"/>
    </filter>
    <filter id="Path_182" x="142.567" y="3.627" width="218.674" height="170.732" filterUnits="userSpaceOnUse">
      <feOffset input="SourceAlpha"/>
      <feGaussianBlur stdDeviation="5" result="blur-16"/>
      <feFlood flood-color="#fff"/>
      <feComposite operator="in" in2="blur-16"/>
      <feComposite in="SourceGraphic"/>
    </filter>
    <filter id="Path_183" x="249.941" y="83.483" width="78.171" height="73.951" filterUnits="userSpaceOnUse">
      <feOffset input="SourceAlpha"/>
      <feGaussianBlur stdDeviation="5" result="blur-17"/>
      <feFlood flood-color="#fff"/>
      <feComposite operator="in" in2="blur-17"/>
      <feComposite in="SourceGraphic"/>
    </filter>
    <filter id="Path_184" x="228.252" y="0" width="68.382" height="68.328" filterUnits="userSpaceOnUse">
      <feOffset input="SourceAlpha"/>
      <feGaussianBlur stdDeviation="5" result="blur-18"/>
      <feFlood flood-color="#fff"/>
      <feComposite operator="in" in2="blur-18"/>
      <feComposite in="SourceGraphic"/>
    </filter>
    <filter id="Path_185" x="247.541" y="228.925" width="36.721" height="36.905" filterUnits="userSpaceOnUse">
      <feOffset input="SourceAlpha"/>
      <feGaussianBlur stdDeviation="5" result="blur-19"/>
      <feFlood flood-color="#fff"/>
      <feComposite operator="in" in2="blur-19"/>
      <feComposite in="SourceGraphic"/>
    </filter>
    <filter id="Path_186" x="331.891" y="50.11" width="66.649" height="67.718" filterUnits="userSpaceOnUse">
      <feOffset input="SourceAlpha"/>
      <feGaussianBlur stdDeviation="5" result="blur-20"/>
      <feFlood flood-color="#fff"/>
      <feComposite operator="in" in2="blur-20"/>
      <feComposite in="SourceGraphic"/>
    </filter>
    <filter id="Path_187" x="399.243" y="163.086" width="67.374" height="69.098" filterUnits="userSpaceOnUse">
      <feOffset input="SourceAlpha"/>
      <feGaussianBlur stdDeviation="5" result="blur-21"/>
      <feFlood flood-color="#fff"/>
      <feComposite operator="in" in2="blur-21"/>
      <feComposite in="SourceGraphic"/>
    </filter>
  </defs>
  <g id="Group_57" data-name="Group 57" transform="translate(17.25 20.606)" opacity="0.95">
    <g transform="matrix(1, 0, 0, 1, -17.25, -20.61)" filter="url(#Path_167)">
      <path id="Path_167-2" data-name="Path 167" d="M1720.269,9661.242q-1.323,0-2.623-.045a65.72,65.72,0,0,1-11.44-1.361,53.256,53.256,0,0,1-20.871-9.682,60.246,60.246,0,0,1-13.263-13.658,61.807,61.807,0,0,1-8.165-16.434,60.549,60.549,0,0,1-2.625-23.012,55.086,55.086,0,0,1,2.577-13.107,52.658,52.658,0,0,1,6.062-12.543c5.6-8.5,13.7-15.511,24.081-20.844a55.87,55.87,0,0,1,32.894-5.814,66.551,66.551,0,0,1,9.982,2.027q-.317-.3-.627-.6a39.938,39.938,0,0,1-7.785-10.433,44.541,44.541,0,0,1-4.243-13.7,57.685,57.685,0,0,1,.57-20.912,43.363,43.363,0,0,1,7.973-17.536,29.18,29.18,0,0,1,20.885-11.467,44.545,44.545,0,0,1,16.459,1.481,28.134,28.134,0,0,1,12.674,7.533,24.5,24.5,0,0,1,5.8,10.439,34.073,34.073,0,0,1,.632,13.857,24.824,24.824,0,0,1-15.906,20.564,35.287,35.287,0,0,1-13.093,2.508,2.252,2.252,0,0,1,.075-4.5h.074c.012,0,.082,0,.206,0a31.417,31.417,0,0,0,11.18-2.237c7.459-3.066,11.835-8.776,13.006-16.973,1.217-8.519-.6-15.633-5.254-20.573-5.475-5.813-14.526-8.517-25.486-7.614a24.789,24.789,0,0,0-17.719,9.769c-6.817,8.642-9.668,21.715-7.628,34.973,2.5,16.214,10.967,23.551,25.933,32.852q1.019.567,2.038,1.164a2.238,2.238,0,0,1,.5.395c2,1.216,4.1,2.474,6.312,3.8,2.6,1.555,5.288,3.162,8.133,4.9,1.75,1.068,3.51,2.15,5.212,3.2,8.423,5.184,16.507,10.157,23.754,13.68.378-7.4,2.877-12.885,7.6-16.706a16.706,16.706,0,0,1,10.526-3.618q.251,0,.5.006a17.412,17.412,0,0,1,5.539,1.055,14.961,14.961,0,0,1,4.766,2.793,12.019,12.019,0,0,1,4.135,7.921c.34,3.354-.641,6.931-2.917,10.628a14.749,14.749,0,0,1-10.324,7.224c-3.764.657-8.176.083-13.489-1.745q-.8-.277-1.617-.586c.584,5.6,2.117,12.516,4.774,21.658a37.61,37.61,0,0,1,1.433,14.892,30.522,30.522,0,0,1-3.931,11.853,32.3,32.3,0,0,1-7.2,8.514,33.249,33.249,0,0,1-8.409,5.165,28.7,28.7,0,0,1-10.717,1.8c-1.066,0-2.155-.041-3.255-.126a42.539,42.539,0,0,1-14.507-3.721,44.229,44.229,0,0,1-13.032,7.587,91.709,91.709,0,0,1-21.22,4.84A85.074,85.074,0,0,1,1720.269,9661.242Zm-.626-112.434a50.954,50.954,0,0,0-23.582,5.752c-23.293,11.972-29.328,29.9-30.288,42.824a55.379,55.379,0,0,0,10,36.543c2.831,4.078,13.462,17.678,31.375,21.506,12.365,2.643,27.975,1.24,41.755-3.749a39.216,39.216,0,0,0,10.3-5.681,32.32,32.32,0,0,1-9.066-8.561,35.136,35.136,0,0,1-5.977-15.48,37.97,37.97,0,0,1-.08-10.979,28.868,28.868,0,0,1,2.813-8.961,25.473,25.473,0,0,1,5.01-6.776,24.642,24.642,0,0,1,6.435-4.478,23.675,23.675,0,0,1,6.086-1.979,21.489,21.489,0,0,1,6.146-.227,18.179,18.179,0,0,1,5.763,1.6,14.718,14.718,0,0,1,8.688,12.986,36.652,36.652,0,0,1-1.063,12.188,59.919,59.919,0,0,1-4.363,12.027,66.644,66.644,0,0,1-7.219,11.686,60.138,60.138,0,0,1-5.249,5.96,38.575,38.575,0,0,0,11.188,2.556c.976.073,1.945.11,2.893.11a24.506,24.506,0,0,0,8.995-1.445c8.511-3.562,21.358-14.947,15.524-35.014-1.692-5.818-2.872-10.484-3.714-14.681a76.115,76.115,0,0,1-1.419-10.2c-7.983-3.661-16.869-9.129-26.159-14.844-1.7-1.046-3.455-2.126-5.2-3.191-2.827-1.726-5.506-3.328-8.1-4.877-3.123-1.868-6.05-3.619-8.784-5.316C1743.458,9553.174,1732.063,9548.809,1719.643,9548.809Zm48.635,44.146a18.531,18.531,0,0,0-7.987,1.873c-9.084,4.365-13.447,14.267-11.672,26.486,1.417,9.748,6.2,17.023,14.223,21.627a60.17,60.17,0,0,0,16.741-28.658,32.677,32.677,0,0,0,.961-10.676,11.552,11.552,0,0,0-2.645-6.858A13,13,0,0,0,1768.278,9592.955Zm36.729-9.608q1.719.715,3.357,1.28c4.576,1.576,8.258,2.092,11.253,1.568a10.3,10.3,0,0,0,7.26-5.146c3.217-5.229,3.091-9.778-.357-12.81a12.66,12.66,0,0,0-15.53-.115C1806.912,9571.422,1805.006,9576.266,1805.007,9583.347Z" transform="translate(-1639.26 -9415.98)" fill="#fff"/>
    </g>
    <g transform="matrix(1, 0, 0, 1, -17.25, -20.61)" filter="url(#Path_168)">
      <path id="Path_168-2" data-name="Path 168" d="M1755.034,9577.134c-3.065,0-5.345-1.089-6.464-3.1-1.467-2.641-2.045-6.147-1.719-10.425q.126-1.652.431-3.439a2.255,2.255,0,0,1,.514-2.566,67.282,67.282,0,0,1,2.8-9.012,19.589,19.589,0,0,1,5.181-7.905,8.35,8.35,0,0,1,5.338-2.263,5.592,5.592,0,0,1,5.31,3.761,12.287,12.287,0,0,1,.515,6.32c-.707,5.069-4.033,8.935-9.619,11.178a27.075,27.075,0,0,1-5.649,1.548c-.747,4.576-.484,8.248.832,10.616.273.492,1.244.785,2.534.785.16,0,.324,0,.493-.015,3.954-.214,8.268-2.6,9.026-4.4,1.888-4.483,3.933-9.738,3.953-9.792a2.251,2.251,0,0,1,4.2,1.632c-.021.054-2.089,5.367-4,9.906-1.019,2.421-3.5,4.081-5.4,5.048a19.663,19.663,0,0,1-7.529,2.1Q1755.4,9577.134,1755.034,9577.134Zm6.094-34.205c-1.383,0-4.281,1.933-6.326,7.271-.832,2.172-1.52,4.253-2.06,6.221a21.257,21.257,0,0,0,3-.958c4-1.634,6.264-4.184,6.738-7.581.411-2.945-.222-4.7-1.06-4.92A1.191,1.191,0,0,0,1761.128,9542.929Z" transform="translate(-1568.03 -9359.59)" fill="#fff"/>
    </g>
    <g transform="matrix(1, 0, 0, 1, -17.25, -20.61)" filter="url(#Path_173)">
      <path id="Path_173-2" data-name="Path 173" d="M1755.034,9577.134c-3.065,0-5.345-1.089-6.464-3.1-1.467-2.641-2.045-6.147-1.719-10.425q.126-1.652.431-3.439a2.255,2.255,0,0,1,.514-2.566,67.282,67.282,0,0,1,2.8-9.012,19.589,19.589,0,0,1,5.181-7.905,8.35,8.35,0,0,1,5.338-2.263,5.592,5.592,0,0,1,5.31,3.761,12.287,12.287,0,0,1,.515,6.32c-.707,5.069-4.033,8.935-9.619,11.178a27.075,27.075,0,0,1-5.649,1.548c-.747,4.576-.484,8.248.832,10.616.273.492,1.244.785,2.534.785.16,0,.324,0,.493-.015,3.954-.214,8.268-2.6,9.026-4.4a90.093,90.093,0,0,0,3.266-9.566,2.251,2.251,0,1,1,4.344,1.183,92.949,92.949,0,0,1-3.461,10.13c-1.019,2.421-3.5,4.081-5.4,5.048a19.663,19.663,0,0,1-7.529,2.1Q1755.4,9577.134,1755.034,9577.134Zm6.094-34.205c-1.383,0-4.281,1.933-6.326,7.271-.832,2.172-1.52,4.253-2.06,6.221a21.257,21.257,0,0,0,3-.958c4-1.634,6.264-4.184,6.738-7.581.411-2.945-.222-4.7-1.06-4.92A1.191,1.191,0,0,0,1761.128,9542.929Z" transform="translate(-1548.52 -9276.42)" fill="#fff"/>
    </g>
    <g transform="matrix(1, 0, 0, 1, -17.25, -20.61)" filter="url(#Path_174)">
      <path id="Path_174-2" data-name="Path 174" d="M1739.46,9744.859q-1.71,0-3.4-.092a58.04,58.04,0,0,1-13.393-2.294,48.617,48.617,0,0,1-17.54-9.295,42.139,42.139,0,0,1-11.712-15.683,50.773,50.773,0,0,1-4.317-19.627,45.235,45.235,0,0,1,3.239-17.363,45.563,45.563,0,0,1,9.419-14.615,40.454,40.454,0,0,1,13.1-9.2,28.966,28.966,0,0,1,8.424-2.094,38.216,38.216,0,0,1,9.225.227,42.7,42.7,0,0,1,9.33,2.444,41.006,41.006,0,0,1,8.725,4.632,36.581,36.581,0,0,1,6.127,5.38,33.11,33.11,0,0,1,4.785,6.829,33.756,33.756,0,0,1,3.693,17.748,41.505,41.505,0,0,1-4.949,18.278,33.25,33.25,0,0,1-10.114,11.1,38.045,38.045,0,0,1-11.475,5.345,35.413,35.413,0,0,1-9.362,1.4,2.251,2.251,0,1,1,0-4.5,34.341,34.341,0,0,0,18.268-5.94c8.1-5.62,12.514-14.341,13.134-25.919a28.91,28.91,0,0,0-12.692-26.027c-9.467-6.63-22.361-8.586-31.357-4.755-8.73,3.718-16.247,11.7-20.106,21.343-2.949,7.371-5.163,19.174,1.032,33.534,4.654,10.788,14.03,18.759,26.4,22.446,16.854,5.024,36.228,1.484,53.155-9.707,17.695-11.7,30.757-26.605,44.587-42.385q1.98-2.26,3.98-4.535a105.93,105.93,0,0,1-6.116-12.864,114.023,114.023,0,0,1-4.707-14.769,100.526,100.526,0,0,1-3.069-24.73c.135-8.062,2.088-21.506,4.585-35.645a24.3,24.3,0,0,1-5.68,3.521,15.955,15.955,0,0,1-8.159,1.656,5.836,5.836,0,0,1-4.637-2.936c-1.467-2.64-2.045-6.146-1.719-10.424q.126-1.652.431-3.439a2.257,2.257,0,0,1,.514-2.566,67.39,67.39,0,0,1,2.8-9.012,19.578,19.578,0,0,1,5.181-7.9c2.212-1.9,4.616-2.635,6.768-2.085a5.768,5.768,0,0,1,3.881,3.581,12.3,12.3,0,0,1,.515,6.321c-.707,5.069-4.033,8.935-9.619,11.179a27.067,27.067,0,0,1-5.649,1.547c-.747,4.576-.484,8.248.832,10.616.081.146.3.532,1.27.656a4.95,4.95,0,0,0,.63.038,13.358,13.358,0,0,0,5.116-1.336,18.255,18.255,0,0,0,5.481-3.664,23.484,23.484,0,0,0,4.03-6.576c1.144-6.031,2.328-11.971,3.454-17.462,4.985-24.312,10.076-45.905,10.891-48.513a10,10,0,0,1,1.017-2.364,2.834,2.834,0,0,1,3.065-1.5,3,3,0,0,1,2.21,2.314,11.084,11.084,0,0,1,.395,2.549,46.631,46.631,0,0,1-.43,8.076c-1.256,10.048-14.147,52.1-14.756,54.086a41.564,41.564,0,0,1-1.516,4.146c-3.47,18.317-6.241,35.761-6.4,45.215-.205,12.271,3.039,31.135,12.556,48.708,9.437-10.608,19.549-21.357,31.991-31.694a79.087,79.087,0,0,1,27.273-15.111,63.56,63.56,0,0,1,26.754-2.416,60.669,60.669,0,0,1,12.08,2.8,59.748,59.748,0,0,1,10.988,5.066,58.758,58.758,0,0,1,9.591,7.068,57.16,57.16,0,0,1,7.89,8.807c4.725,6.531,7.385,15.2,7.49,24.416a50.957,50.957,0,0,1-1.723,13.7,49.708,49.708,0,0,1-5.624,13.162,47.672,47.672,0,0,1-9.576,11.262,50.191,50.191,0,0,1-13.738,8.351c-11.311,4.637-24.844,5.771-40.225,3.378a101.452,101.452,0,0,1-22.368-6.074,87.461,87.461,0,0,1-18.058-9.886,88.45,88.45,0,0,1-23.492-25.187q-1.512,1.721-3.012,3.434c-14.035,16.013-27.291,31.139-45.49,43.173a79.715,79.715,0,0,1-14.508,7.605,72.268,72.268,0,0,1-14.7,4.127A66.28,66.28,0,0,1,1739.46,9744.859Zm91.744-62.787c13.636,22.46,34.323,35.994,61.5,40.226a93.9,93.9,0,0,0,14.461,1.182c26.613,0,39.158-13.277,44.545-22.073,8.909-14.547,8.931-34.016.05-46.291a54.714,54.714,0,0,0-37.464-21.917c-12.156-1.534-30.8.085-50.585,16.522C1851.069,9660.222,1840.816,9671.227,1831.2,9682.072Zm-20.755-117.41c-1.383,0-4.281,1.934-6.326,7.271-.832,2.173-1.52,4.254-2.061,6.223a21.254,21.254,0,0,0,3-.959c4-1.634,6.264-4.185,6.739-7.581.411-2.944-.222-4.7-1.06-4.919A1.144,1.144,0,0,0,1810.448,9564.662Z" transform="translate(-1576.86 -9301.85)" fill="#fff"/>
    </g>
    <g transform="matrix(1, 0, 0, 1, -17.25, -20.61)" filter="url(#Path_169)">
      <path id="Path_169-2" data-name="Path 169" d="M1763.226,9611.555c-.11,0-.22,0-.33-.011a4.561,4.561,0,0,1-2.643-1.077,6.515,6.515,0,0,1-1.714-2.412c-2.325-5.314.024-14.457,1.632-19.434,1.956-6.055,5.265-13.43,8.252-16.259a5.771,5.771,0,0,1,5.286-1.753,7,7,0,0,1,3.53,2.055c.1-.4.152-.629.155-.64a2.251,2.251,0,0,1,4.381,1.04l-3.838,16.531c-2.105,9.549-2.351,11.924-2.351,12.51,0,.427.1.963.386,1.063.538.188,2.043-.314,3.8-2.479,1.38-1.7,2.595-5.353,3.881-9.216a82.113,82.113,0,0,1,4.194-10.85c-.021-.039-.041-.081-.061-.122a10.075,10.075,0,0,1-1.1-5.266,8.419,8.419,0,0,1,3.657-6.3,9.968,9.968,0,0,1,4.194-1.263q.463-.04.893-.04a4.629,4.629,0,0,1,3.927,1.578,3.563,3.563,0,0,1-.012,4.088,14.072,14.072,0,0,1-3.185,3.471,15.465,15.465,0,0,0-3.088,3.713,19.7,19.7,0,0,0,2.286,2.426c1.026.934,1.984,1.752,2.859,2.477l.85-.812c1.482-1.418,3.015-2.884,4.592-4.42,1.964-1.91,3.888-3.783,5.687-5.559q.627-2.086,1.3-3.767a19.888,19.888,0,0,1,3-5.39,8.3,8.3,0,0,1,6.188-3.18c.264-.027.491-.051.67-.082a2.577,2.577,0,0,1,2.278.578,5.215,5.215,0,0,1,1.452-.555,4.33,4.33,0,0,1,3.967.758,3.739,3.739,0,0,1,.585.666,12.218,12.218,0,0,0,4.943-2.235,8.108,8.108,0,0,1,2.747-1.446,3.651,3.651,0,0,1,4.117,1.449,11.227,11.227,0,0,1,3.982-2.935,10.449,10.449,0,0,1,3.856-.87h0a4.938,4.938,0,0,1,3.336,1.161,5.571,5.571,0,0,1,1.752,3.323,13.215,13.215,0,0,1,.083,3.578,51.845,51.845,0,0,1-1.358,7.09l-.083.346c-1.679,7-3.362,15.982-1.45,23.418.126.49.388,1.509,2.337,1.509,2.787,0,6.824-2.091,10.284-5.327a32,32,0,0,0,8.965-15.232,54.822,54.822,0,0,1,4.955-12.63,5.269,5.269,0,0,1-1.531-4.53,10.618,10.618,0,0,1,1.559-4.26,15.2,15.2,0,0,1,4.218-4.535,8.977,8.977,0,0,1,2.746-1.312,5.413,5.413,0,0,1,3.236.07,3.286,3.286,0,0,1,2.241,2.186,4.172,4.172,0,0,1-.744,3.362c-.473.753-1.126,1.583-1.953,2.633-.994,1.263-2.219,2.819-3.507,4.741.23.095.464.189.7.285a29.507,29.507,0,0,1,8,4.318,14.3,14.3,0,0,1,3.427,4.105,15.012,15.012,0,0,1,1.74,5.925,9.291,9.291,0,0,1-3.244,7.794c-.1.09-.194.178-.292.265l.264.325c2.545,3.154,5.429,6.728,9.355,8.9,11.369,6.289,29.464,11.418,51.1.148,13.1-6.822,15.75-9.875,23.474-22.425,7.462-12.122,6.538-33.493,1.335-47.151-5.545-14.554-16.38-23.729-30.511-25.838-25.378-3.789-41.192,4.168-47,23.643-7.778,26.082,2.733,35.637,10.408,42.615,7.132,6.485,19.581,5.676,19.706,5.666q.082-.006.163-.006a2.251,2.251,0,0,1,.158,4.5,40.761,40.761,0,0,1-8.216-.438,35.2,35.2,0,0,1-7.456-1.937,23.558,23.558,0,0,1-7.385-4.449c-4.072-3.7-9.139-8.309-12.134-15.717a35.989,35.989,0,0,1-2.488-13.3,63.047,63.047,0,0,1,2.928-18.218,39.784,39.784,0,0,1,9.466-16.769,34.687,34.687,0,0,1,13.737-8.5,50.277,50.277,0,0,1,15.016-2.484q.765-.019,1.546-.02a83.352,83.352,0,0,1,12.214.965,40.766,40.766,0,0,1,21.3,9.744,43.753,43.753,0,0,1,7.456,8.585,52.209,52.209,0,0,1,5.294,10.361,73.973,73.973,0,0,1,4.351,25.946,63.257,63.257,0,0,1-1.481,13.443,38.753,38.753,0,0,1-4.579,11.725c-8.015,13.023-11.3,16.8-25.228,24.057-10.626,5.535-21.463,7.884-32.213,6.984a57.58,57.58,0,0,1-23.147-7.186c-4.7-2.6-7.876-6.537-10.68-10.012l-.562-.7a22.837,22.837,0,0,1-3.176,1.233,21.682,21.682,0,0,1-6.163.991c-.166,0-.329,0-.49-.008-3.353-.111-4.741-1.375-5.315-2.416a3.788,3.788,0,0,1,.033-3.613,9.437,9.437,0,0,1,2.4-2.863c2.5-2.154,4.855-3.1,7.2-2.888a9.224,9.224,0,0,1,5.387,2.7c.337.309.67.639,1,.986a5.051,5.051,0,0,0,1.978-4.23c-.6-6.617-5.789-8.723-10.37-10.582-.472-.191-.93-.377-1.37-.562a49.819,49.819,0,0,0-4.5,11.5,36.548,36.548,0,0,1-4.193,9.926,35.594,35.594,0,0,1-6.057,7.474c-4.379,4.1-9.374,6.541-13.359,6.541h0a7.268,7.268,0,0,1-4.168-1.174,6.3,6.3,0,0,1-2.529-3.716c-2.159-8.4-.368-18.088,1.433-25.593l.084-.346a48.578,48.578,0,0,0,1.252-6.449c.234-2.547-.291-3.079-.3-3.084-.086-.072-.814-.221-2.578.484-.789.315-2.461,1.395-4.795,5.083h0q-.06.606-.15,1.268a75.469,75.469,0,0,1-2.133,9.637c-.652,2.3-1.96,6.747-3.4,10.605a39.616,39.616,0,0,1-1.863,4.355c-.674,1.288-1.553,2.646-2.964,2.957a2.651,2.651,0,0,1-2.619-.9c-.762-.89-.8-2.081-.616-3.6a35.757,35.757,0,0,1,.806-4.127,96.071,96.071,0,0,1,5.986-16.8q1.262-2.672,2.545-4.828a10.1,10.1,0,0,0-.03-1.7c-.161.1-.355.228-.585.4a16.723,16.723,0,0,1-6.9,3.077c-.057.773-.158,1.594-.262,2.443-.145,1.177-.294,2.393-.348,3.591-.136,2.979-2.11,8.8-4.8,14.152a42.159,42.159,0,0,1-4.33,7.042c-1.925,2.433-3.734,3.74-5.531,4a20.244,20.244,0,0,1-2.785.265c-.143,0-.285,0-.424-.01a4.909,4.909,0,0,1-3.486-1.5c-1.195-1.291-1.666-3.228-1.529-6.277a59.7,59.7,0,0,1,1.3-8.908l-.532.519c-1.591,1.547-3.13,3.02-4.619,4.444l-.435.416a11,11,0,0,1,3.23,3.6,4.971,4.971,0,0,1,.322,3.336,9.857,9.857,0,0,1-1.5,3.137c-1.427,2.141-4.353,4.465-7.825,6.217a21.105,21.105,0,0,1-4.592,1.743,6.4,6.4,0,0,1-4.509-.247,3.628,3.628,0,0,1-1.927-2.789,6.376,6.376,0,0,1,.55-3.258c1.266-3.125,4.664-6.778,9.461-11.449-.811-.68-1.688-1.437-2.626-2.289q-.784-.712-1.463-1.432c-1.12,2.606-2.059,5.426-2.945,8.089-1.481,4.446-2.759,8.288-4.654,10.627a12.247,12.247,0,0,1-4.245,3.52,5.963,5.963,0,0,1-4.554.371,4.827,4.827,0,0,1-2.53-2.069q-.227.287-.464.574a24.906,24.906,0,0,1-3.689,3.73A7.492,7.492,0,0,1,1763.226,9611.555Zm-.036-4.5h.012c.155,0,1.546-.121,4.609-3.771a46.9,46.9,0,0,0,3.415-4.694l2.312-9.959q.331-1.5.723-3.234c.554-2.451,1.111-4.853,1.6-6.929a13.131,13.131,0,0,0-.962-1.6,4.419,4.419,0,0,0-2.1-1.847c-.13-.024-.526-.106-1.283.61-1.691,1.6-4.741,7.184-7.063,14.375a51.617,51.617,0,0,0-2.215,9.592c-.432,3.712-.008,5.666.423,6.65A1.876,1.876,0,0,0,1763.19,9607.051Zm35.286-15.667c-4.379,4.255-7.831,7.872-8.809,10.284-.055.135-.1.256-.133.36a14.258,14.258,0,0,0,4.712-1.677,17.02,17.02,0,0,0,5.8-4.539,5.971,5.971,0,0,0,.866-1.682.474.474,0,0,0-.02-.385A10.341,10.341,0,0,0,1798.476,9591.384Zm12.381,3.595a1.68,1.68,0,0,0,.622.074h.058a17.77,17.77,0,0,0,2.081-.221c.035,0,.91-.152,2.636-2.334a37.684,37.684,0,0,0,3.838-6.27c2.592-5.152,4.235-10.318,4.327-12.336.062-1.369.23-2.731.377-3.934.076-.617.149-1.213.2-1.759a6.19,6.19,0,0,1-2.191-.726,3.641,3.641,0,0,1-.348-.238q-.255.346-.58.747c-.862,1.065-2.124,2.458-3.857,4.261-1.4,1.451-2.966,3.032-4.68,4.729q-.542,1.938-1.053,4.237a68.407,68.407,0,0,0-1.762,10.785C1810.425,9594.321,1810.8,9594.908,1810.856,9594.979Zm68.509-9.033a10.929,10.929,0,0,0,3.253-.042,19,19,0,0,0,4.271-1.118,5.078,5.078,0,0,0-2.765-1.541c-.071-.006-.143-.009-.215-.009a6.107,6.107,0,0,0-3.637,1.824A8.566,8.566,0,0,0,1879.365,9585.945Zm-84.883-13.734h-.006a5.279,5.279,0,0,0-1.68.5,3.932,3.932,0,0,0-1.6,2.691,17.14,17.14,0,0,1,2.066-2.078C1793.775,9572.889,1794.174,9572.52,1794.482,9572.211Zm89.046-16.617a11.042,11.042,0,0,0-2.4,2.767,8.256,8.256,0,0,0-.619,1.231c1.1-1.565,2.124-2.867,2.972-3.943C1883.5,9555.629,1883.514,9555.61,1883.528,9555.594Z" transform="translate(-1557.85 -9396.92)" fill="#fff"/>
    </g>
    <g transform="matrix(1, 0, 0, 1, -17.25, -20.61)" filter="url(#Path_170)">
      <path id="Path_170-2" data-name="Path 170" d="M1817.5,9533.053a2.22,2.22,0,0,1-.627-.092,2.249,2.249,0,0,1-1.536-2.787l3.435-11.869a2.251,2.251,0,1,1,4.325,1.252l-3.436,11.869A2.254,2.254,0,0,1,1817.5,9533.053Z" transform="translate(-1508.92 -9378.03)" fill="#fff"/>
    </g>
    <g transform="matrix(1, 0, 0, 1, -17.25, -20.61)" filter="url(#Path_171)">
      <path id="Path_171-2" data-name="Path 171" d="M1680.711,9617.119a18.948,18.948,0,0,1-12.007-4.2,30.265,30.265,0,0,1-9.863-13.65,22.908,22.908,0,0,1-1.165-9.05,24.46,24.46,0,0,1,2.957-9.794,17.249,17.249,0,0,1,4.24-5.119,20.873,20.873,0,0,1,5.661-3.3,24.243,24.243,0,0,1,12.811-1.354,17.9,17.9,0,0,1,8.627,3.847,13.829,13.829,0,0,1,4.724,8.52,16.121,16.121,0,0,1-.2,6.479,12.034,12.034,0,0,1-2.452,4.8c-4.582,5.457-12.918,5.681-13.271,5.688l-.088-4.5h-.005c.066,0,6.677-.207,9.927-4.1,1.607-1.923,2.143-4.434,1.639-7.674-1-6.457-7.092-8.179-9.662-8.619-6.2-1.061-14.609,1.193-17.987,7.468-5.913,10.981-.3,21.066,6.92,26.844,6.791,5.432,15.344,2.941,19.437-.057a2.251,2.251,0,1,1,2.662,3.631,21.2,21.2,0,0,1-4.867,2.613,22.856,22.856,0,0,1-6.182,1.443Q1681.631,9617.118,1680.711,9617.119Z" transform="translate(-1642.61 -9332.53)" fill="#fff"/>
    </g>
    <g transform="matrix(1, 0, 0, 1, -17.25, -20.61)" filter="url(#Path_172)">
      <path id="Path_172-2" data-name="Path 172" d="M1713.594,9692.282a54.929,54.929,0,0,1-7.278-.491,57.68,57.68,0,0,1-11.723-2.845,52.641,52.641,0,0,1-10.632-5.169c-6.973-4.454-11.964-10.192-14.433-16.6-4.6-11.93-5.356-23.541-2.242-34.515a53.747,53.747,0,0,1,7.045-15.092,69.968,69.968,0,0,1,11.644-13.254,75.306,75.306,0,0,1,15.445-10.493,107.887,107.887,0,0,1,17.24-7.063,131.783,131.783,0,0,1,17.011-4.139,118.651,118.651,0,0,1,14.793-1.674c8.07-.358,14.814-.428,20.43-.21a34.536,34.536,0,0,1,7.9-4.324,27.338,27.338,0,0,1,13-2.069,16.8,16.8,0,0,1,5.093,1.418,15.072,15.072,0,0,1,4.005,2.709,16.3,16.3,0,0,1,4.655,8.377,17.836,17.836,0,0,1-.378,9.222,11.591,11.591,0,0,1-1.752,3.6,4.451,4.451,0,0,1-3.09,1.841c-2.559.253-4.531-1.971-5.79-3.665a60.468,60.468,0,0,1-3.847-6.281c-.4-.709-.769-1.377-1.125-1.992-.52-.9-2.891-3.086-13.655-4.015q-1.7-.149-3.59-.245a37.6,37.6,0,0,0-10.978,15.1c-3.6,8.71-4.261,18.354-1.78,25.795,1.363,4.09,4.776,6.514,7.4,7.827a26.444,26.444,0,0,0,11.678,2.591q.532,0,1.067-.02c6.449-.235,13.835-2.733,17.5-8.81.22-1.766.419-3.447.6-5,.405-3.422.755-6.375,1.119-8.442a37.662,37.662,0,0,1,1.292-5.347c.582-1.712,1.224-2.938,2.467-3.356a2.438,2.438,0,0,1,2.433.523,3.818,3.818,0,0,1,.974,2.876,24.273,24.273,0,0,1-.245,3.376,110.856,110.856,0,0,1-2.521,12.241,20.061,20.061,0,0,1-1.764,4.557c-.121.953-.249,1.93-.384,2.922a31.2,31.2,0,0,0,5.218-6.379c4.072-6.786,6.076-13.425,8.014-19.844q.218-.722.441-1.457c-1.292-1.295-1.752-3.5-1.368-6.557a26.753,26.753,0,0,1,1.785-6.6,13.654,13.654,0,0,1,1.312-2.5,3.478,3.478,0,0,1,2.814-1.772h.023a2.781,2.781,0,0,1,2.562,1.884,6.644,6.644,0,0,1,.22,2.976c-.077.984-.242,2.235-.479,3.62-.1.6-.216,1.214-.337,1.824.6-.6,1.2-1.222,1.787-1.835,1.106-1.147,2.151-2.23,3.022-3.01a9.049,9.049,0,0,1,1.41-1.076,2.786,2.786,0,0,1,2.928-.147,2.731,2.731,0,0,1,1.291,2.708,9.208,9.208,0,0,1-.413,2.039,258.321,258.321,0,0,0-6.061,31.864,164.757,164.757,0,0,0-1.437,17.688,60.98,60.98,0,0,1,10.288-6.367,23.754,23.754,0,0,1,13.8-2.192,22.292,22.292,0,0,1,11.489,5.1,15.858,15.858,0,0,1,4.669,6.779,13.174,13.174,0,0,1-.016,8.437,15.115,15.115,0,0,1-3.4,5.509,24.168,24.168,0,0,1-5.406,4.24,34.847,34.847,0,0,1-13.879,4.49,25.759,25.759,0,0,1-10.911-1.057,16.458,16.458,0,0,1-4.68-2.487,13.87,13.87,0,0,1-3.562-4.062,22.8,22.8,0,0,1-2.46-8.454q-.993,1.153-1.842,2.332c-4.784,6.647-5.678,13.146-2.658,19.313a2.251,2.251,0,0,1-4.043,1.981,20.558,20.558,0,0,1-1.922-12.614,27.009,27.009,0,0,1,4.968-11.311,42.486,42.486,0,0,1,5.068-5.777q-.014-.583-.02-1.186a155.846,155.846,0,0,1,1.488-20.938c1.439-11.163,3.6-21.932,5.088-28.219-2.658,2.744-4.7,4.729-6.507,5.686-.252.819-.5,1.643-.743,2.448-2.018,6.682-4.1,13.593-8.464,20.857a41.016,41.016,0,0,1-10.106,10.887c-.585,3.5-1.282,7.037-2.13,10.394-2.753,10.9-6.49,17.487-11.426,20.145a26.006,26.006,0,0,1-12.135,3.154q-.34,0-.678-.011a16.978,16.978,0,0,1-5.526-1.03,9.31,9.31,0,0,1-4.165-2.935,6.761,6.761,0,0,1-1.245-5.648,13.124,13.124,0,0,1,3.551-6.111c4.209-4.479,10.429-8.257,17.014-12.259,4.3-2.614,8.678-5.271,12.581-8.181q.068-.434.135-.864-.866.674-1.819,1.276a26.38,26.38,0,0,1-6.908,3.041,31.949,31.949,0,0,1-7.537,1.17c-.407.015-.814.022-1.221.022a31.021,31.021,0,0,1-13.7-3.067c-4.852-2.43-8.19-6.036-9.654-10.428a37.15,37.15,0,0,1-1.609-14.093,47.837,47.837,0,0,1,3.5-14.846,43.725,43.725,0,0,1,8.394-13.232c.106-.112.213-.227.32-.338-4.431-.039-9.486.067-15.238.323-14.4.641-43.6,6.044-61.687,22.225-18.274,16.352-23.547,36.366-15.247,57.885,4.213,10.924,17.55,19.671,33.185,21.767,14.4,1.932,26.956-2.295,33.584-11.3,10.931-14.85,11.323-29.714,1.1-41.857-5.181-6.157-13.545-9.864-22.373-9.918h-.195a29.541,29.541,0,0,0-22.535,9.938,2.251,2.251,0,0,1-3.41-2.939,32.342,32.342,0,0,1,12.03-8.722,36.045,36.045,0,0,1,13.923-2.779h.215a36.357,36.357,0,0,1,14.155,2.947,32.829,32.829,0,0,1,6.287,3.593,30.386,30.386,0,0,1,5.349,4.981,36.609,36.609,0,0,1,6.676,11.483,31.919,31.919,0,0,1,1.741,12.131,37.789,37.789,0,0,1-2.738,12.139,52.894,52.894,0,0,1-6.6,11.672,30.451,30.451,0,0,1-7.5,7.175,35.437,35.437,0,0,1-9.275,4.408A46.174,46.174,0,0,1,1713.594,9692.282Zm81.3-49.506c-2.99,2.01-6.1,3.9-9.132,5.741-6.316,3.836-12.281,7.46-16.071,11.494-1.351,1.438-3.41,4.12-2.018,5.932.978,1.271,3.376,2.118,6.26,2.207q.272.009.546.009a21.428,21.428,0,0,0,9.993-2.616c1.9-1.024,3.673-3.1,5.259-6.174a53.059,53.059,0,0,0,3.936-11.107C1794.12,9646.479,1794.527,9644.639,1794.9,9642.776Zm29.115,8.554c.254,4.752.991,8.278,2.208,10.384,3.385,5.861,11.478,5.714,14.8,5.375a30.231,30.231,0,0,0,12.048-3.888c3.522-2.074,5.945-4.665,6.821-7.294,1.226-3.677.006-7.469-3.347-10.4a18.935,18.935,0,0,0-20.348-2.251A55.378,55.378,0,0,0,1824.011,9651.33Zm-45.253-70.01c8.2.952,12.9,2.877,14.711,6,.374.646.755,1.328,1.159,2.052,1.041,1.864,2.118,3.792,3.2,5.337a8.22,8.22,0,0,0,2.01,2.235,6.961,6.961,0,0,0,1.049-2.25,12.871,12.871,0,0,0-3.082-12.943c-3.81-3.6-9.984-4-17.386-1.132Q1779.579,9580.943,1778.758,9581.32Z" transform="translate(-1634.37 -9329.24)" fill="#fff"/>
    </g>
    <g transform="matrix(1, 0, 0, 1, -17.25, -20.61)" filter="url(#Path_175)">
      <path id="Path_175-2" data-name="Path 175" d="M1703.2,9676.43a17.13,17.13,0,0,1-3.447-.338,14.059,14.059,0,0,1-6.478-3.151,15.042,15.042,0,0,1-4.252-6.336,16.775,16.775,0,0,1-.9-7.149,13.994,13.994,0,0,1,5.832-10.032,19.474,19.474,0,0,1,9.61-3.7,2.251,2.251,0,1,1,.415,4.482c-4.08.379-10.776,3.339-11.375,9.678a11.622,11.622,0,0,0,3.623,9.659c2.686,2.329,6.566,2.965,11.22,1.848a14.307,14.307,0,0,0,11.191-12.754,19.818,19.818,0,0,0-1.961-11.348c-2.183-4.26-7.665-6.023-11.879-6.754a42.341,42.341,0,0,0-9.165-.531q-.085.006-.168.006a2.252,2.252,0,0,1-.164-4.5,46.642,46.642,0,0,1,10.265.587,28.794,28.794,0,0,1,8.4,2.684,15.13,15.13,0,0,1,6.718,6.455,23.5,23.5,0,0,1,2.225,6.683,25.2,25.2,0,0,1,.2,7.229,19.675,19.675,0,0,1-4.209,10.228,18.118,18.118,0,0,1-4.433,3.915,19.99,19.99,0,0,1-5.968,2.476A22.665,22.665,0,0,1,1703.2,9676.43Z" transform="translate(-1615.85 -9276.75)" fill="#fff"/>
    </g>
    <g transform="matrix(1, 0, 0, 1, -17.25, -20.61)" filter="url(#Path_176)">
      <path id="Path_176-2" data-name="Path 176" d="M1797.4,9716.883a26.851,26.851,0,0,1-6.093-.705,30.285,30.285,0,0,1-12.868-6.709,26.287,26.287,0,0,1-8.141-13.384,45.558,45.558,0,0,1-1.264-14.692,70.441,70.441,0,0,1,3.161-16.807,2.252,2.252,0,0,1,4.26,1.461h0a67.061,67.061,0,0,0-2.933,15.719c-.661,11.075,1.98,19.247,7.85,24.288,6.525,5.6,14.243,7.584,21.73,5.572a23.443,23.443,0,0,0,15.929-15.041c2.738-7.821,2.008-15.8-2-21.88-3.6-5.466-9.547-8.744-16.732-9.234a2.252,2.252,0,0,1,.151-4.5q.077,0,.156.006c8.62.587,15.788,4.582,20.185,11.249a26.938,26.938,0,0,1,4.222,12.142,30.589,30.589,0,0,1-.094,6.778,33.49,33.49,0,0,1-1.634,6.925,27.95,27.95,0,0,1-19.011,17.9,26.658,26.658,0,0,1-6.366.9C1797.739,9716.88,1797.571,9716.883,1797.4,9716.883Z" transform="translate(-1549.55 -9255.65)" fill="#fff"/>
    </g>
    <g transform="matrix(1, 0, 0, 1, -17.25, -20.61)" filter="url(#Path_177)">
      <path id="Path_177-2" data-name="Path 177" d="M1799.905,9658.521q-.652,0-1.288-.025a24.325,24.325,0,0,1-8.458-1.758,17.78,17.78,0,0,1-6.993-5.177,15.937,15.937,0,0,1-2.577-4.34,12.109,12.109,0,0,1-.829-4.45,12.549,12.549,0,0,1,3.037-7.9c2.98-3.611,7.879-6.209,13.441-7.126a27.69,27.69,0,0,1,17.6,2.946c4.5,2.428,8.234,4.615,11.525,6.545,1.76,1.034,3.369,1.978,4.878,2.832.323-.656.685-1.448,1.085-2.407,1.071-2.566,2.239-5.862,3.569-10.074,2.008-6.358,4.041-13.709,6.034-21.082a16.855,16.855,0,0,1-5.262,2.493,11.517,11.517,0,0,1-5.668.3,6.758,6.758,0,0,1-1.387-.5q-.385.579-.769,1.115a19.589,19.589,0,0,1-2.726,3.162,7.1,7.1,0,0,1-3.463,1.867,5.024,5.024,0,0,1-4.255-1.22c-2.1-1.771-2.951-4.705-2.595-8.972a70.468,70.468,0,0,1,2.071-10.5c.656-2.64,1.276-5.134,1.584-7.249.378-2.594.123-3.605-.064-3.978a.874.874,0,0,0-.131-.206,3.258,3.258,0,0,0-1.673.474,30.015,30.015,0,0,0-3.429,2.031c-.8.521-1.565,1.016-2.277,1.411-.31,2.211-.772,4.859-1.384,7.915-2.846,14.235-7.944,23.621-13.636,25.108a5.663,5.663,0,0,1-5.9-1.907c-.978-1.142-1.556-2.946-1.766-5.52a40.488,40.488,0,0,1,.179-7.231c.152-1.487.364-3.018.624-4.539a2.252,2.252,0,0,1-2.633-3.605h0c.023-.021,2.215-2.12,4.56-4.592.272-.878.557-1.711.851-2.48,1.622-4.249,3.379-6.361,5.53-6.649a4.332,4.332,0,0,1,.577-.039,2.8,2.8,0,0,1,2.638,1.549c.787,1.64-.247,3.428-1.482,5.112a54.336,54.336,0,0,1-3.839,4.53c-.089.1-.178.193-.267.289a63.32,63.32,0,0,0-1.587,7.187,50.451,50.451,0,0,0-.731,8.721c.073,3.491.736,4.3.764,4.337a1.169,1.169,0,0,0,1.34.482c.543-.143,2.5-.948,4.953-5.357a58.154,58.154,0,0,0,5.406-16.276c.553-2.766.937-4.968,1.2-6.715a3.349,3.349,0,0,1-1.245-2.849,13.086,13.086,0,0,1,.523-3.6,4.386,4.386,0,0,1,1.992-2.958,2.441,2.441,0,0,1,2.587.252c.788.6,1.157,1.532,1.2,3.239,2.607-1.682,5.485-3.371,8.112-2.656a4.629,4.629,0,0,1,2.965,2.534c1.591,3.183.308,8.346-1.178,14.327a67.39,67.39,0,0,0-1.954,9.789c-.223,2.669.116,4.4,1.007,5.151.327.276.468.253.552.233.276-.049,1.332-.43,3.333-3.222.429-.6.865-1.255,1.3-1.95a11.289,11.289,0,0,1-.627-4.734,26.427,26.427,0,0,1,1.256-6.373,33.5,33.5,0,0,1,5.06-10.222,29.309,29.309,0,0,1,7.047-6.224,24.085,24.085,0,0,1,9.351-3.309,6.776,6.776,0,0,1,2.121-.023,3.715,3.715,0,0,1,.765.223c.652-1.231,1.512-2.285,2.868-2.4a2.839,2.839,0,0,1,2.493,1.085,3.894,3.894,0,0,1,.758,1.81c.587,3.395-1.5,11.014-4.855,17.724a47.478,47.478,0,0,1-4.422,7.254l-.644,2.4c-2.441,9.079-4.965,18.467-7.469,26.394a96.382,96.382,0,0,1-4.978,13.262,30.427,30.427,0,0,0,13.742,3.693c.144,0,.287,0,.43,0a14.784,14.784,0,0,0,10.692-4.543,19.081,19.081,0,0,0,3.632-4.984l0,.006,4.109,1.84a23.22,23.22,0,0,1-4.439,6.208,19.407,19.407,0,0,1-14,5.976c-.179,0-.358,0-.538-.006a33.1,33.1,0,0,1-12.461-2.706c-1.2-.5-2.4-1.066-3.619-1.689l-.039.042c-2.882,3-8.084,6.214-13.917,8.594a55.932,55.932,0,0,1-9.4,2.926A40.882,40.882,0,0,1,1799.905,9658.521Zm.779-26.634a22.9,22.9,0,0,0-3.715.3c-4.5.743-8.4,2.765-10.7,5.548-1.967,2.386-3.5,6.224.383,10.976,2.687,3.291,6.773,5.068,12.145,5.284.358.014.722.021,1.091.021a44.319,44.319,0,0,0,16.211-3.548,42.219,42.219,0,0,0,11.511-6.719c-1.421-.809-2.916-1.686-4.525-2.629-3.257-1.912-6.949-4.078-11.381-6.465A23.3,23.3,0,0,0,1800.684,9631.888Zm30.321-26.981a7.064,7.064,0,0,0,3.506-.259c2.935-.778,5.917-3.044,8.678-6.536,1.347-5,2.629-9.692,3.784-13.595-.906.86-1.885,1.763-2.889,2.689-1.635,1.51-3.325,3.068-4.76,4.5-2.022,2.023-4.285,6.05-6.473,9.945C1832.243,9602.737,1831.626,9603.835,1831.005,9604.906Zm14.713-25.462c-4.229,1.114-7.729,3.491-11.1,7.48a29.285,29.285,0,0,0-4.2,8.658c-.252.807-.463,1.591-.629,2.339,2.132-3.772,4.185-7.227,6.355-9.4,1.5-1.5,3.223-3.09,4.89-4.628,1.722-1.59,3.349-3.091,4.631-4.4Z" transform="translate(-1534 -9330.88)" fill="#fff"/>
    </g>
    <g transform="matrix(1, 0, 0, 1, -17.25, -20.61)" filter="url(#Path_178)">
      <path id="Path_178-2" data-name="Path 178" d="M1898.511,9670.656a65.254,65.254,0,0,1-10.546-.861,73.376,73.376,0,0,1-21.543-7.189,85.533,85.533,0,0,1-16.132-10.73,64.418,64.418,0,0,1-9.684-9.867c-4.472-5.871-6.45-15.4-7.894-22.357-.408-1.966-.761-3.664-1.113-5.022-.056-.218-.11-.416-.161-.6a2.679,2.679,0,0,1-1.2.031,2.351,2.351,0,0,1-1.875-2.451,20.614,20.614,0,0,1-1.7,2.141,7.365,7.365,0,0,1-3.822,2.468,4.657,4.657,0,0,1-2.658-.242,2.252,2.252,0,0,1-.9-4.265,2.849,2.849,0,0,1,2.382.01,2.014,2.014,0,0,0,.254.09c.055-.01.945-.206,2.74-2.771,2.242-3.2,4.917-8.694,7.953-16.316,1.363-3.424,2.458-6.473,3.274-9.117-1.73-2.361-2.907-4.68-2.429-7.07a10.132,10.132,0,0,1,1.493-3.612,5.473,5.473,0,0,1,2.885-2.319,3.086,3.086,0,0,1,3.177.927,5,5,0,0,1,1.089,3.19,18.877,18.877,0,0,1-.4,4.307q-.311,1.649-.852,3.629c.308.379.628.766.952,1.158,2,2.423,4.274,5.172,5.46,8.1a9.589,9.589,0,0,1-1.444,10.26,52.22,52.22,0,0,1-8.924,8.646c-.484.367-.961.713-1.422,1.031.084.252.163.511.239.771.466,1.6.9,3.69,1.4,6.108,1.356,6.535,3.214,15.485,7.067,20.543,3.976,5.219,12.721,13.41,24.282,19.314,14.55,7.434,29.422,9.414,44.2,5.88,19.2-4.587,29.406-15.66,34.592-24.146a50.241,50.241,0,0,0,6.219-37.781,46.076,46.076,0,0,0-24.393-29.918c-7.721-3.688-19.948-6.66-34.345.13-30.282,14.278-21.781,42.291-19.769,47.763,4.563,12.41,15.177,20,31.548,22.564a2.252,2.252,0,0,1-.345,4.477,2.149,2.149,0,0,1-.351-.029c-18.106-2.834-29.907-11.4-35.078-25.458-1.446-3.933-4.521-14.327-1.84-25.87a36.8,36.8,0,0,1,7.3-14.973,46.621,46.621,0,0,1,16.618-12.547,45.073,45.073,0,0,1,19.325-4.467c.222,0,.444,0,.666.006a43.592,43.592,0,0,1,18.215,4.342,50.078,50.078,0,0,1,17.139,13.621,49.52,49.52,0,0,1,9.689,19.293,51.224,51.224,0,0,1,1.4,10.2,54.786,54.786,0,0,1-.633,10.529,55.959,55.959,0,0,1-7.52,20.473,55.44,55.44,0,0,1-14.84,16.025,63.12,63.12,0,0,1-22.548,10.149A65.332,65.332,0,0,1,1898.511,9670.656Zm-59.252-82.855q-1.043,3.038-2.457,6.589a112.863,112.863,0,0,1-6.81,14.659,2.988,2.988,0,0,1,2.591-.666c.641-.43,1.4-.973,2.241-1.639a48.267,48.267,0,0,0,7.506-7.4,5.118,5.118,0,0,0,.767-5.735A24.581,24.581,0,0,0,1839.259,9587.8Z" transform="translate(-1506.55 -9337.44)" fill="#fff"/>
    </g>
    <g transform="matrix(1, 0, 0, 1, -17.25, -20.61)" filter="url(#Path_179)">
      <path id="Path_179-2" data-name="Path 179" d="M1864.738,9577.955a32.354,32.354,0,0,1-6.361-.642,23.241,23.241,0,0,1-8.555-3.464,16.9,16.9,0,0,1-5.358-5.736,13.873,13.873,0,0,1-1.732-5.5,12.584,12.584,0,0,1,.736-5.6,2.251,2.251,0,1,1,4.219,1.571,8.674,8.674,0,0,0,.71,7.332c1.943,3.486,5.8,5.963,10.863,6.977a26.063,26.063,0,0,0,12.193-.358,17.369,17.369,0,0,0,4.3-1.775,2.251,2.251,0,0,1,2.481,3.758A25.926,25.926,0,0,1,1864.738,9577.955Z" transform="translate(-1489.1 -9339.64)" fill="#fff"/>
    </g>
    <g transform="matrix(1, 0, 0, 1, -17.25, -20.61)" filter="url(#Path_180)">
      <path id="Path_180-2" data-name="Path 180" d="M1872.084,9658.3a17.9,17.9,0,0,1-7.259-1.524,17.687,17.687,0,0,1-6.559-5.06,22.461,22.461,0,0,1-4.208-8.565,2.251,2.251,0,0,1,4.355-1.143c1.359,5.172,4.209,8.856,8.244,10.654a13.922,13.922,0,0,0,12.091-.508c7.45-3.838,8.8-13.787,5.387-20.674-1.511-3.047-4.45-5.238-8.735-6.512a30.988,30.988,0,0,0-11.451-.977c-.079.007-.157.011-.234.011a2.251,2.251,0,0,1-.229-4.489,35.337,35.337,0,0,1,13.2,1.139,21.869,21.869,0,0,1,6.562,3.119,15.455,15.455,0,0,1,4.924,5.711,22.254,22.254,0,0,1,1.713,14.731,17.659,17.659,0,0,1-9.072,11.944,19.305,19.305,0,0,1-7.926,2.124C1872.619,9658.289,1872.351,9658.3,1872.084,9658.3Z" transform="translate(-1466.73 -9290.7)" fill="#fff"/>
    </g>
    <g transform="matrix(1, 0, 0, 1, -17.25, -20.61)" filter="url(#Path_181)">
      <path id="Path_181-2" data-name="Path 181" d="M1752.238,9604.318a1.49,1.49,0,0,1-.186-.008,2.25,2.25,0,0,1-2.06-2.427,40.766,40.766,0,0,1,3.776-13.212c4.389-8.937,11.581-13.661,20.8-13.661a61.346,61.346,0,0,1,14.341,2.188c5.283,1.3,11.037,3.05,17.129,4.9,19.216,5.828,41,12.434,56.37,7.632,16.453-5.142,24.932-15.394,26.036-23.273.677-4.834-1.22-8.87-5.489-11.675-11.206-7.363-14.964-6.267-15.331-6.13a2.252,2.252,0,0,1-2.793-3.523c.395-.353,1.95-1.46,5.394-1.007,3.909.518,9.024,2.837,15.2,6.9a16.823,16.823,0,0,1,6.289,7.137,15.976,15.976,0,0,1,1.186,8.924,22.477,22.477,0,0,1-2.822,7.969,32.969,32.969,0,0,1-5.962,7.5,51.962,51.962,0,0,1-20.369,11.48,45.206,45.206,0,0,1-13.479,1.856c-14.3,0-30.662-4.964-45.541-9.478-11.686-3.545-22.724-6.894-30.162-6.894-7.488,0-13.126,3.749-16.757,11.144a36.463,36.463,0,0,0-3.33,11.6A2.251,2.251,0,0,1,1752.238,9604.318Z" transform="translate(-1564.27 -9354.85)" fill="#fff"/>
    </g>
    <g transform="matrix(1, 0, 0, 1, -17.25, -20.61)" filter="url(#Path_182)">
      <path id="Path_182-2" data-name="Path 182" d="M1805.606,9592.48a23.335,23.335,0,0,1-9.61-2.117,21,21,0,0,1-8.19-6.723,25.551,25.551,0,0,1-4.381-9.85,25.808,25.808,0,0,1,.092-11.186,23.643,23.643,0,0,1,5.469-10.484,22.271,22.271,0,0,1,18.1-7.551,24.554,24.554,0,0,1,9.02,2.214,15.912,15.912,0,0,1,6.138,4.69,2.251,2.251,0,0,1-3.641,2.648,11.631,11.631,0,0,0-4.4-3.256,19.979,19.979,0,0,0-7.351-1.8,17.718,17.718,0,0,0-14.519,6.063,20.008,20.008,0,0,0-4.508,17.729c1.3,6.159,5.046,11.167,10.011,13.4,12.669,5.694,24.088-3.893,31.436-12.937,6.094-7.5,14.159-30.148,21.275-50.129,1.413-3.967,2.8-7.869,4.145-11.561-.3-.225-.6-.448-.9-.678-12.778-9.764-23.649-22.424-30.144-29.986-1.415-1.648-2.637-3.07-3.647-4.2-5.639-6.289-20.894-18.635-38.271-20.354-12.941-1.28-34.33,4.784-40.216,26.75-2.58,9.628-4.606,27.8,10.81,41.355a40.479,40.479,0,0,0,48.23,4.17c7.708-4.755,12.025-11.933,14.29-17.116a42.791,42.791,0,0,0,3.09-10.165,2.226,2.226,0,0,1,.244-.771,2.261,2.261,0,0,1,.53-.66l0,0v0a2.249,2.249,0,0,1,1.067-.5,2.127,2.127,0,0,1,.519-.029,2.235,2.235,0,0,1,1.059.336h0s0,0,.006,0h0a2.309,2.309,0,0,1,.494.422,2.246,2.246,0,0,1,.56,1.52h0s0,0,0,.006h0v.008h0v.006s0,0,0,0a.027.027,0,0,1,0,0v.008a.055.055,0,0,0,0,.007s0,.006,0,.008v.011a2.274,2.274,0,0,1-.033.313,47.37,47.37,0,0,1-3.414,11.279,46.351,46.351,0,0,1-5.879,9.964,38.641,38.641,0,0,1-10.172,9.184,45.173,45.173,0,0,1-41.191,3.143,45.4,45.4,0,0,1-12.376-7.766,41.543,41.543,0,0,1-8.833-10.795,40.4,40.4,0,0,1-4.385-11.861,51.282,51.282,0,0,1,1.031-23.245,38.906,38.906,0,0,1,19.412-24.727,45.757,45.757,0,0,1,13.193-4.687,43.744,43.744,0,0,1,12.4-.653,53.564,53.564,0,0,1,13.5,3.239,70.693,70.693,0,0,1,11.789,5.786,74.262,74.262,0,0,1,15.886,12.8c1.042,1.162,2.279,2.6,3.71,4.27,6.344,7.387,16.936,19.722,29.248,29.179a156.773,156.773,0,0,1,6.816-16.347,69.207,69.207,0,0,1,7.04-11.053,35.227,35.227,0,0,1,9.266-8.4,26.261,26.261,0,0,1,12.221-3.784q.8-.047,1.624-.047a38.9,38.9,0,0,1,13.643,2.738,25.812,25.812,0,0,1,13.085,10.848,26.906,26.906,0,0,1,3.154,7.676,27.505,27.505,0,0,1-1.356,17.021,28.108,28.108,0,0,1-5.061,7.973,32,32,0,0,1-8.162,6.47,41.98,41.98,0,0,1-11.292,4.253,36.726,36.726,0,0,1-11.549.729,46.064,46.064,0,0,1-11.232-2.558,72.027,72.027,0,0,1-16.016-8.383c-1.2,3.325-2.447,6.814-3.708,10.355-3.663,10.286-7.451,20.923-11.187,30.156-4.378,10.822-7.821,17.591-10.835,21.3-5.655,6.96-11.546,11.764-17.509,14.277a24.826,24.826,0,0,1-9.569,2.045Zm54.491-82.5c13.233,9.226,25.4,12.651,36.2,10.19,13.663-3.112,22.291-11.829,23.078-23.315a21.97,21.97,0,0,0-14.034-22.322c-9.263-3.494-16.972-3.256-23.569.732-5.341,3.23-10,8.854-14.652,17.7A163.378,163.378,0,0,0,1860.1,9509.977Z" transform="translate(-1577.69 -9433.12)" fill="#fff"/>
    </g>
    <g transform="matrix(1, 0, 0, 1, -17.25, -20.61)" filter="url(#Path_183)">
      <path id="Path_183-2" data-name="Path 183" d="M1819.73,9539.241a26.266,26.266,0,0,1-9.674-1.974,28.211,28.211,0,0,1-11.534-8.03,24.067,24.067,0,0,1-4.843-9.6,27.052,27.052,0,0,1-.423-11.331l4.4.955v0a22.9,22.9,0,0,0,.431,9.447c1.734,6.648,6.318,11.486,13.625,14.379,7.255,2.871,13.942,1.969,18.826-2.545a18.847,18.847,0,0,0,5.286-18.7c-1.573-5.125-4.738-8.834-9.151-10.729a17.83,17.83,0,0,0-14.785.637,2.251,2.251,0,0,1-2.008-4.03,23.228,23.228,0,0,1,9.255-2.407,21.4,21.4,0,0,1,9.314,1.663,19.737,19.737,0,0,1,7.03,5.076,22.613,22.613,0,0,1,4.65,8.469,20.859,20.859,0,0,1,.895,6.2,23.547,23.547,0,0,1-.879,6.252,24.139,24.139,0,0,1-2.508,5.863,22.513,22.513,0,0,1-4.043,5.014,20.506,20.506,0,0,1-4.613,3.221,19.875,19.875,0,0,1-5.577,1.858A21.15,21.15,0,0,1,1819.73,9539.241Z" transform="translate(-1527.91 -9396.81)" fill="#fff"/>
    </g>
    <g transform="matrix(1, 0, 0, 1, -17.25, -20.61)" filter="url(#Path_184)">
      <path id="Path_184-2" data-name="Path 184" d="M1789.574,9486.563a2.248,2.248,0,0,1-1.717-.793q-.357-.422-.693-.813c-3.26-3.826-5.227-6.136-5.844-9.129-.6-2.935.146-5.985,2.056-11.717,2.3-6.91,6.859-12.213,12.5-14.548,4.939-2.047,10.362-1.722,15.682.938a13.039,13.039,0,0,1,4.5,3.731,15.952,15.952,0,0,1,2.6,5.128,20.425,20.425,0,0,1-.014,11.644,17.053,17.053,0,0,1-6.078,9,15.1,15.1,0,0,1-5.3,2.508,18.293,18.293,0,0,1-6.58.384,2.251,2.251,0,1,1,.509-4.474,16.092,16.092,0,0,0,1.807.105c8.05,0,10.685-6.645,11.325-8.8,1.625-5.479.28-12.66-4.785-15.193-4.117-2.061-8.248-2.339-11.945-.808-4.432,1.836-8.058,6.141-9.949,11.813-3.126,9.376-3.126,9.376,2.943,16.5.225.264.457.535.7.817a2.251,2.251,0,0,1-1.714,3.709Z" transform="translate(-1537.86 -9433.23)" fill="#fff"/>
    </g>
    <g transform="matrix(1, 0, 0, 1, -17.25, -20.61)" filter="url(#Path_185)">
      <path id="Path_185-2" data-name="Path 185" d="M1794.4,9580.55a2.251,2.251,0,0,1-1.654-3.779l2.218-2.4a2.251,2.251,0,1,1,3.308,3.055l-2.218,2.4A2.246,2.246,0,0,1,1794.4,9580.55Z" transform="translate(-1529.61 -9329.72)" fill="#fff"/>
    </g>
    <g transform="matrix(1, 0, 0, 1, -17.25, -20.61)" filter="url(#Path_186)">
      <path id="Path_186-2" data-name="Path 186" d="M1553.972,9514.676a20.241,20.241,0,0,1-5.246-.565,18.789,18.789,0,0,1-7.94-4.643c-3.97-3.61-6.157-9.718-5.572-15.559a17.8,17.8,0,0,1,2.6-7.7,20.337,20.337,0,0,1,16.572-9.249h.065a17.958,17.958,0,0,1,8.857,2.336,17.242,17.242,0,0,1,6.091,5.778,15.189,15.189,0,0,1,2.37,8.078,2.251,2.251,0,1,1-4.5,0,11.678,11.678,0,0,0-6.181-9.94,13.91,13.91,0,0,0-14.305.467,13.723,13.723,0,0,0-7.086,10.681c-.441,4.4,1.215,9.137,4.12,11.778,4.594,4.176,7.31,4.114,12.24,4,.819-.019,1.665-.037,2.581-.037a2.251,2.251,0,1,1,0,4.5c-.865,0-1.686.019-2.48.036C1555.4,9514.659,1554.679,9514.676,1553.972,9514.676Z" transform="translate(-1188.23 -9411.85)" fill="#fff"/>
    </g>
    <g transform="matrix(1, 0, 0, 1, -17.25, -20.61)" filter="url(#Path_187)">
      <path id="Path_187-2" data-name="Path 187" d="M1591.274,9577.117a22.7,22.7,0,0,1-5.076-.6,22.269,22.269,0,0,1-8.57-3.968,15.739,15.739,0,0,1-4.075-4.6,13.33,13.33,0,0,1-1.764-6.238,2.251,2.251,0,1,1,4.5-.149,9.6,9.6,0,0,0,4.1,7.431,17.843,17.843,0,0,0,13.576,3.352c2.882-.641,5.875-3.186,8.006-6.811a17.613,17.613,0,0,0,2.5-11.525c-1.366-7.621-6.8-11.485-16.155-11.485a17.992,17.992,0,0,0-9.631,2.428,9.746,9.746,0,0,0-2.76,2.417l.014-.021-3.786-2.439a13.421,13.421,0,0,1,3.865-3.6,19.386,19.386,0,0,1,4.992-2.28,25.446,25.446,0,0,1,7.306-1.01c5.685,0,10.354,1.31,13.878,3.893a16.155,16.155,0,0,1,4.391,4.857,19.351,19.351,0,0,1,2.318,6.445,21.9,21.9,0,0,1-3.046,14.6,22.412,22.412,0,0,1-4.7,5.685,14.494,14.494,0,0,1-6.21,3.24A17,17,0,0,1,1591.274,9577.117Z" transform="translate(-1157.55 -9359.93)" fill="#fff"/>
    </g>
  </g>
</svg>
