<svg xmlns="http://www.w3.org/2000/svg" xmlns:xlink="http://www.w3.org/1999/xlink" width="459.769" height="260.265" viewBox="0 0 459.769 260.265">
  <defs>
    <filter id="Path_167" x="0" y="40.955" width="202.59" height="219.31" filterUnits="userSpaceOnUse">
      <feOffset input="SourceAlpha"/>
      <feGaussianBlur stdDeviation="5" result="blur"/>
      <feFlood flood-color="#fff"/>
      <feComposite operator="in" in2="blur"/>
      <feComposite in="SourceGraphic"/>
    </filter>
    <filter id="Path_168" x="156.879" y="163.834" width="56.1" height="68.712" filterUnits="userSpaceOnUse">
      <feOffset input="SourceAlpha"/>
      <feGaussianBlur stdDeviation="5" result="blur-2"/>
      <feFlood flood-color="#fff"/>
      <feComposite operator="in" in2="blur-2"/>
      <feComposite in="SourceGraphic"/>
    </filter>
    <filter id="Path_169" x="177.865" y="82.484" width="260.371" height="147.148" filterUnits="userSpaceOnUse">
      <feOffset input="SourceAlpha"/>
      <feGaussianBlur stdDeviation="5" result="blur-3"/>
      <feFlood flood-color="#fff"/>
      <feComposite operator="in" in2="blur-3"/>
      <feComposite in="SourceGraphic"/>
    </filter>
    <filter id="Path_170" x="284.48" y="123.646" width="37.939" height="46.374" filterUnits="userSpaceOnUse">
      <feOffset input="SourceAlpha"/>
      <feGaussianBlur stdDeviation="5" result="blur-4"/>
      <feFlood flood-color="#fff"/>
      <feComposite operator="in" in2="blur-4"/>
      <feComposite in="SourceGraphic"/>
    </filter>
    <filter id="Path_182" x="135.719" y="3.627" width="218.674" height="170.732" filterUnits="userSpaceOnUse">
      <feOffset input="SourceAlpha"/>
      <feGaussianBlur stdDeviation="5" result="blur-5"/>
      <feFlood flood-color="#fff"/>
      <feComposite operator="in" in2="blur-5"/>
      <feComposite in="SourceGraphic"/>
    </filter>
    <filter id="Path_183" x="243.092" y="83.483" width="78.171" height="73.951" filterUnits="userSpaceOnUse">
      <feOffset input="SourceAlpha"/>
      <feGaussianBlur stdDeviation="5" result="blur-6"/>
      <feFlood flood-color="#fff"/>
      <feComposite operator="in" in2="blur-6"/>
      <feComposite in="SourceGraphic"/>
    </filter>
    <filter id="Path_184" x="221.403" y="0" width="68.383" height="68.328" filterUnits="userSpaceOnUse">
      <feOffset input="SourceAlpha"/>
      <feGaussianBlur stdDeviation="5" result="blur-7"/>
      <feFlood flood-color="#fff"/>
      <feComposite operator="in" in2="blur-7"/>
      <feComposite in="SourceGraphic"/>
    </filter>
    <filter id="Path_186" x="325.042" y="50.11" width="66.649" height="67.718" filterUnits="userSpaceOnUse">
      <feOffset input="SourceAlpha"/>
      <feGaussianBlur stdDeviation="5" result="blur-8"/>
      <feFlood flood-color="#fff"/>
      <feComposite operator="in" in2="blur-8"/>
      <feComposite in="SourceGraphic"/>
    </filter>
    <filter id="Path_187" x="392.395" y="163.086" width="67.374" height="69.098" filterUnits="userSpaceOnUse">
      <feOffset input="SourceAlpha"/>
      <feGaussianBlur stdDeviation="5" result="blur-9"/>
      <feFlood flood-color="#fff"/>
      <feComposite operator="in" in2="blur-9"/>
      <feComposite in="SourceGraphic"/>
    </filter>
  </defs>
  <g id="seasons" transform="translate(10.401 20.606)" opacity="0.95">
    <g transform="matrix(1, 0, 0, 1, -10.4, -20.61)" filter="url(#Path_167)">
      <path id="Path_167-2" data-name="Path 167" d="M1720.269,9661.242q-1.323,0-2.623-.045a65.72,65.72,0,0,1-11.44-1.361,53.256,53.256,0,0,1-20.871-9.682,60.246,60.246,0,0,1-13.263-13.658,61.807,61.807,0,0,1-8.165-16.434,60.549,60.549,0,0,1-2.625-23.012,55.086,55.086,0,0,1,2.577-13.107,52.658,52.658,0,0,1,6.062-12.543c5.6-8.5,13.7-15.511,24.081-20.844a55.87,55.87,0,0,1,32.894-5.814,66.551,66.551,0,0,1,9.982,2.027q-.317-.3-.627-.6a39.938,39.938,0,0,1-7.785-10.433,44.541,44.541,0,0,1-4.243-13.7,57.685,57.685,0,0,1,.57-20.912,43.363,43.363,0,0,1,7.973-17.536,29.18,29.18,0,0,1,20.885-11.467,44.545,44.545,0,0,1,16.459,1.481,28.134,28.134,0,0,1,12.674,7.533,24.5,24.5,0,0,1,5.8,10.439,34.073,34.073,0,0,1,.632,13.857,24.824,24.824,0,0,1-15.906,20.564,35.287,35.287,0,0,1-13.093,2.508,2.252,2.252,0,0,1,.075-4.5h.074c.012,0,.082,0,.206,0a31.417,31.417,0,0,0,11.18-2.237c7.459-3.066,11.835-8.776,13.006-16.973,1.217-8.519-.6-15.633-5.254-20.573-5.475-5.813-14.526-8.517-25.486-7.614a24.789,24.789,0,0,0-17.719,9.769c-6.817,8.642-9.668,21.715-7.628,34.973,2.5,16.214,10.967,23.551,25.933,32.852q1.019.567,2.038,1.164a2.238,2.238,0,0,1,.5.395c2,1.216,4.1,2.474,6.312,3.8,2.6,1.555,5.288,3.162,8.133,4.9,1.75,1.068,3.51,2.15,5.212,3.2,8.423,5.184,16.507,10.157,23.754,13.68.378-7.4,2.877-12.885,7.6-16.706a16.706,16.706,0,0,1,10.526-3.618q.251,0,.5.006a17.412,17.412,0,0,1,5.539,1.055,14.961,14.961,0,0,1,4.766,2.793,12.019,12.019,0,0,1,4.135,7.921c.34,3.354-.641,6.931-2.917,10.628a14.749,14.749,0,0,1-10.324,7.224c-3.764.657-8.176.083-13.489-1.745q-.8-.277-1.617-.586c.584,5.6,2.117,12.516,4.774,21.658a37.61,37.61,0,0,1,1.433,14.892,30.522,30.522,0,0,1-3.931,11.853,32.3,32.3,0,0,1-7.2,8.514,33.249,33.249,0,0,1-8.409,5.165,28.7,28.7,0,0,1-10.717,1.8c-1.066,0-2.155-.041-3.255-.126a42.539,42.539,0,0,1-14.507-3.721,44.229,44.229,0,0,1-13.032,7.587,91.709,91.709,0,0,1-21.22,4.84A85.074,85.074,0,0,1,1720.269,9661.242Zm-.626-112.434a50.954,50.954,0,0,0-23.582,5.752c-23.293,11.972-29.328,29.9-30.288,42.824a55.379,55.379,0,0,0,10,36.543c2.831,4.078,13.462,17.678,31.375,21.506,12.365,2.643,27.975,1.24,41.755-3.749a39.216,39.216,0,0,0,10.3-5.681,32.32,32.32,0,0,1-9.066-8.561,35.136,35.136,0,0,1-5.977-15.48,37.97,37.97,0,0,1-.08-10.979,28.868,28.868,0,0,1,2.813-8.961,25.473,25.473,0,0,1,5.01-6.776,24.642,24.642,0,0,1,6.435-4.478,23.675,23.675,0,0,1,6.086-1.979,21.489,21.489,0,0,1,6.146-.227,18.179,18.179,0,0,1,5.763,1.6,14.718,14.718,0,0,1,8.688,12.986,36.652,36.652,0,0,1-1.063,12.188,59.919,59.919,0,0,1-4.363,12.027,66.644,66.644,0,0,1-7.219,11.686,60.138,60.138,0,0,1-5.249,5.96,38.575,38.575,0,0,0,11.188,2.556c.976.073,1.945.11,2.893.11a24.506,24.506,0,0,0,8.995-1.445c8.511-3.562,21.358-14.947,15.524-35.014-1.692-5.818-2.872-10.484-3.714-14.681a76.115,76.115,0,0,1-1.419-10.2c-7.983-3.661-16.869-9.129-26.159-14.844-1.7-1.046-3.455-2.126-5.2-3.191-2.827-1.726-5.506-3.328-8.1-4.877-3.123-1.868-6.05-3.619-8.784-5.316C1743.458,9553.174,1732.063,9548.809,1719.643,9548.809Zm48.635,44.146a18.531,18.531,0,0,0-7.987,1.873c-9.084,4.365-13.447,14.267-11.672,26.486,1.417,9.748,6.2,17.023,14.223,21.627a60.17,60.17,0,0,0,16.741-28.658,32.677,32.677,0,0,0,.961-10.676,11.552,11.552,0,0,0-2.645-6.858A13,13,0,0,0,1768.278,9592.955Zm36.729-9.608q1.719.715,3.357,1.28c4.576,1.576,8.258,2.092,11.253,1.568a10.3,10.3,0,0,0,7.26-5.146c3.217-5.229,3.091-9.778-.357-12.81a12.66,12.66,0,0,0-15.53-.115C1806.912,9571.422,1805.006,9576.266,1805.007,9583.347Z" transform="translate(-1646.1 -9415.98)" fill="#fff"/>
    </g>
    <g transform="matrix(1, 0, 0, 1, -10.4, -20.61)" filter="url(#Path_168)">
      <path id="Path_168-2" data-name="Path 168" d="M1755.034,9577.134c-3.065,0-5.345-1.089-6.464-3.1-1.467-2.641-2.045-6.147-1.719-10.425q.126-1.652.431-3.439a2.255,2.255,0,0,1,.514-2.566,67.282,67.282,0,0,1,2.8-9.012,19.589,19.589,0,0,1,5.181-7.905,8.35,8.35,0,0,1,5.338-2.263,5.592,5.592,0,0,1,5.31,3.761,12.287,12.287,0,0,1,.515,6.32c-.707,5.069-4.033,8.935-9.619,11.178a27.075,27.075,0,0,1-5.649,1.548c-.747,4.576-.484,8.248.832,10.616.273.492,1.244.785,2.534.785.16,0,.324,0,.493-.015,3.954-.214,8.268-2.6,9.026-4.4,1.888-4.483,3.933-9.738,3.953-9.792a2.251,2.251,0,0,1,4.2,1.632c-.021.054-2.089,5.367-4,9.906-1.019,2.421-3.5,4.081-5.4,5.048a19.663,19.663,0,0,1-7.529,2.1Q1755.4,9577.134,1755.034,9577.134Zm6.094-34.205c-1.383,0-4.281,1.933-6.326,7.271-.832,2.172-1.52,4.253-2.06,6.221a21.257,21.257,0,0,0,3-.958c4-1.634,6.264-4.184,6.738-7.581.411-2.945-.222-4.7-1.06-4.92A1.191,1.191,0,0,0,1761.128,9542.929Z" transform="translate(-1574.88 -9359.59)" fill="#fff"/>
    </g>
    <g transform="matrix(1, 0, 0, 1, -10.4, -20.61)" filter="url(#Path_169)">
      <path id="Path_169-2" data-name="Path 169" d="M1763.226,9611.555c-.11,0-.22,0-.33-.011a4.561,4.561,0,0,1-2.643-1.077,6.515,6.515,0,0,1-1.714-2.412c-2.325-5.314.024-14.457,1.632-19.434,1.956-6.055,5.265-13.43,8.252-16.259a5.771,5.771,0,0,1,5.286-1.753,7,7,0,0,1,3.53,2.055c.1-.4.152-.629.155-.64a2.251,2.251,0,0,1,4.381,1.04l-3.838,16.531c-2.105,9.549-2.351,11.924-2.351,12.51,0,.427.1.963.386,1.063.538.188,2.043-.314,3.8-2.479,1.38-1.7,2.595-5.353,3.881-9.216a82.113,82.113,0,0,1,4.194-10.85c-.021-.039-.041-.081-.061-.122a10.075,10.075,0,0,1-1.1-5.266,8.419,8.419,0,0,1,3.657-6.3,9.968,9.968,0,0,1,4.194-1.263q.463-.04.893-.04a4.629,4.629,0,0,1,3.927,1.578,3.563,3.563,0,0,1-.012,4.088,14.072,14.072,0,0,1-3.185,3.471,15.465,15.465,0,0,0-3.088,3.713,19.7,19.7,0,0,0,2.286,2.426c1.026.934,1.984,1.752,2.859,2.477l.85-.812c1.482-1.418,3.015-2.884,4.592-4.42,1.964-1.91,3.888-3.783,5.687-5.559q.627-2.086,1.3-3.767a19.888,19.888,0,0,1,3-5.39,8.3,8.3,0,0,1,6.188-3.18c.264-.027.491-.051.67-.082a2.577,2.577,0,0,1,2.278.578,5.215,5.215,0,0,1,1.452-.555,4.33,4.33,0,0,1,3.967.758,3.739,3.739,0,0,1,.585.666,12.218,12.218,0,0,0,4.943-2.235,8.108,8.108,0,0,1,2.747-1.446,3.651,3.651,0,0,1,4.117,1.449,11.227,11.227,0,0,1,3.982-2.935,10.449,10.449,0,0,1,3.856-.87h0a4.938,4.938,0,0,1,3.336,1.161,5.571,5.571,0,0,1,1.752,3.323,13.215,13.215,0,0,1,.083,3.578,51.845,51.845,0,0,1-1.358,7.09l-.083.346c-1.679,7-3.362,15.982-1.45,23.418.126.49.388,1.509,2.337,1.509,2.787,0,6.824-2.091,10.284-5.327a32,32,0,0,0,8.965-15.232,54.822,54.822,0,0,1,4.955-12.63,5.269,5.269,0,0,1-1.531-4.53,10.618,10.618,0,0,1,1.559-4.26,15.2,15.2,0,0,1,4.218-4.535,8.977,8.977,0,0,1,2.746-1.312,5.413,5.413,0,0,1,3.236.07,3.286,3.286,0,0,1,2.241,2.186,4.172,4.172,0,0,1-.744,3.362c-.473.753-1.126,1.583-1.953,2.633-.994,1.263-2.219,2.819-3.507,4.741.23.095.464.189.7.285a29.507,29.507,0,0,1,8,4.318,14.3,14.3,0,0,1,3.427,4.105,15.012,15.012,0,0,1,1.74,5.925,9.291,9.291,0,0,1-3.244,7.794c-.1.09-.194.178-.292.265l.264.325c2.545,3.154,5.429,6.728,9.355,8.9,11.369,6.289,29.464,11.418,51.1.148,13.1-6.822,15.75-9.875,23.474-22.425,7.462-12.122,6.538-33.493,1.335-47.151-5.545-14.554-16.38-23.729-30.511-25.838-25.378-3.789-41.192,4.168-47,23.643-7.778,26.082,2.733,35.637,10.408,42.615,7.132,6.485,19.581,5.676,19.706,5.666q.082-.006.163-.006a2.251,2.251,0,0,1,.158,4.5,40.761,40.761,0,0,1-8.216-.438,35.2,35.2,0,0,1-7.456-1.937,23.558,23.558,0,0,1-7.385-4.449c-4.072-3.7-9.139-8.309-12.134-15.717a35.989,35.989,0,0,1-2.488-13.3,63.047,63.047,0,0,1,2.928-18.218,39.784,39.784,0,0,1,9.466-16.769,34.687,34.687,0,0,1,13.737-8.5,50.277,50.277,0,0,1,15.016-2.484q.765-.019,1.546-.02a83.352,83.352,0,0,1,12.214.965,40.766,40.766,0,0,1,21.3,9.744,43.753,43.753,0,0,1,7.456,8.585,52.209,52.209,0,0,1,5.294,10.361,73.973,73.973,0,0,1,4.351,25.946,63.257,63.257,0,0,1-1.481,13.443,38.753,38.753,0,0,1-4.579,11.725c-8.015,13.023-11.3,16.8-25.228,24.057-10.626,5.535-21.463,7.884-32.213,6.984a57.58,57.58,0,0,1-23.147-7.186c-4.7-2.6-7.876-6.537-10.68-10.012l-.562-.7a22.837,22.837,0,0,1-3.176,1.233,21.682,21.682,0,0,1-6.163.991c-.166,0-.329,0-.49-.008-3.353-.111-4.741-1.375-5.315-2.416a3.788,3.788,0,0,1,.033-3.613,9.437,9.437,0,0,1,2.4-2.863c2.5-2.154,4.855-3.1,7.2-2.888a9.224,9.224,0,0,1,5.387,2.7c.337.309.67.639,1,.986a5.051,5.051,0,0,0,1.978-4.23c-.6-6.617-5.789-8.723-10.37-10.582-.472-.191-.93-.377-1.37-.562a49.819,49.819,0,0,0-4.5,11.5,36.548,36.548,0,0,1-4.193,9.926,35.594,35.594,0,0,1-6.057,7.474c-4.379,4.1-9.374,6.541-13.359,6.541h0a7.268,7.268,0,0,1-4.168-1.174,6.3,6.3,0,0,1-2.529-3.716c-2.159-8.4-.368-18.088,1.433-25.593l.084-.346a48.578,48.578,0,0,0,1.252-6.449c.234-2.547-.291-3.079-.3-3.084-.086-.072-.814-.221-2.578.484-.789.315-2.461,1.395-4.795,5.083h0q-.06.606-.15,1.268a75.469,75.469,0,0,1-2.133,9.637c-.652,2.3-1.96,6.747-3.4,10.605a39.616,39.616,0,0,1-1.863,4.355c-.674,1.288-1.553,2.646-2.964,2.957a2.651,2.651,0,0,1-2.619-.9c-.762-.89-.8-2.081-.616-3.6a35.757,35.757,0,0,1,.806-4.127,96.071,96.071,0,0,1,5.986-16.8q1.262-2.672,2.545-4.828a10.1,10.1,0,0,0-.03-1.7c-.161.1-.355.228-.585.4a16.723,16.723,0,0,1-6.9,3.077c-.057.773-.158,1.594-.262,2.443-.145,1.177-.294,2.393-.348,3.591-.136,2.979-2.11,8.8-4.8,14.152a42.159,42.159,0,0,1-4.33,7.042c-1.925,2.433-3.734,3.74-5.531,4a20.244,20.244,0,0,1-2.785.265c-.143,0-.285,0-.424-.01a4.909,4.909,0,0,1-3.486-1.5c-1.195-1.291-1.666-3.228-1.529-6.277a59.7,59.7,0,0,1,1.3-8.908l-.532.519c-1.591,1.547-3.13,3.02-4.619,4.444l-.435.416a11,11,0,0,1,3.23,3.6,4.971,4.971,0,0,1,.322,3.336,9.857,9.857,0,0,1-1.5,3.137c-1.427,2.141-4.353,4.465-7.825,6.217a21.105,21.105,0,0,1-4.592,1.743,6.4,6.4,0,0,1-4.509-.247,3.628,3.628,0,0,1-1.927-2.789,6.376,6.376,0,0,1,.55-3.258c1.266-3.125,4.664-6.778,9.461-11.449-.811-.68-1.688-1.437-2.626-2.289q-.784-.712-1.463-1.432c-1.12,2.606-2.059,5.426-2.945,8.089-1.481,4.446-2.759,8.288-4.654,10.627a12.247,12.247,0,0,1-4.245,3.52,5.963,5.963,0,0,1-4.554.371,4.827,4.827,0,0,1-2.53-2.069q-.227.287-.464.574a24.906,24.906,0,0,1-3.689,3.73A7.492,7.492,0,0,1,1763.226,9611.555Zm-.036-4.5h.012c.155,0,1.546-.121,4.609-3.771a46.9,46.9,0,0,0,3.415-4.694l2.312-9.959q.331-1.5.723-3.234c.554-2.451,1.111-4.853,1.6-6.929a13.131,13.131,0,0,0-.962-1.6,4.419,4.419,0,0,0-2.1-1.847c-.13-.024-.526-.106-1.283.61-1.691,1.6-4.741,7.184-7.063,14.375a51.617,51.617,0,0,0-2.215,9.592c-.432,3.712-.008,5.666.423,6.65A1.876,1.876,0,0,0,1763.19,9607.051Zm35.286-15.667c-4.379,4.255-7.831,7.872-8.809,10.284-.055.135-.1.256-.133.36a14.258,14.258,0,0,0,4.712-1.677,17.02,17.02,0,0,0,5.8-4.539,5.971,5.971,0,0,0,.866-1.682.474.474,0,0,0-.02-.385A10.341,10.341,0,0,0,1798.476,9591.384Zm12.381,3.595a1.68,1.68,0,0,0,.622.074h.058a17.77,17.77,0,0,0,2.081-.221c.035,0,.91-.152,2.636-2.334a37.684,37.684,0,0,0,3.838-6.27c2.592-5.152,4.235-10.318,4.327-12.336.062-1.369.23-2.731.377-3.934.076-.617.149-1.213.2-1.759a6.19,6.19,0,0,1-2.191-.726,3.641,3.641,0,0,1-.348-.238q-.255.346-.58.747c-.862,1.065-2.124,2.458-3.857,4.261-1.4,1.451-2.966,3.032-4.68,4.729q-.542,1.938-1.053,4.237a68.407,68.407,0,0,0-1.762,10.785C1810.425,9594.321,1810.8,9594.908,1810.856,9594.979Zm68.509-9.033a10.929,10.929,0,0,0,3.253-.042,19,19,0,0,0,4.271-1.118,5.078,5.078,0,0,0-2.765-1.541c-.071-.006-.143-.009-.215-.009a6.107,6.107,0,0,0-3.637,1.824A8.566,8.566,0,0,0,1879.365,9585.945Zm-84.883-13.734h-.006a5.279,5.279,0,0,0-1.68.5,3.932,3.932,0,0,0-1.6,2.691,17.14,17.14,0,0,1,2.066-2.078C1793.775,9572.889,1794.174,9572.52,1794.482,9572.211Zm89.046-16.617a11.042,11.042,0,0,0-2.4,2.767,8.256,8.256,0,0,0-.619,1.231c1.1-1.565,2.124-2.867,2.972-3.943C1883.5,9555.629,1883.514,9555.61,1883.528,9555.594Z" transform="translate(-1564.7 -9396.92)" fill="#fff"/>
    </g>
    <g transform="matrix(1, 0, 0, 1, -10.4, -20.61)" filter="url(#Path_170)">
      <path id="Path_170-2" data-name="Path 170" d="M1817.5,9533.053a2.22,2.22,0,0,1-.627-.092,2.249,2.249,0,0,1-1.536-2.787l3.435-11.869a2.251,2.251,0,1,1,4.325,1.252l-3.436,11.869A2.254,2.254,0,0,1,1817.5,9533.053Z" transform="translate(-1515.77 -9378.03)" fill="#fff"/>
    </g>
    <g transform="matrix(1, 0, 0, 1, -10.4, -20.61)" filter="url(#Path_182)">
      <path id="Path_182-2" data-name="Path 182" d="M1805.606,9592.48a23.335,23.335,0,0,1-9.61-2.117,21,21,0,0,1-8.19-6.723,25.551,25.551,0,0,1-4.381-9.85,25.808,25.808,0,0,1,.092-11.186,23.643,23.643,0,0,1,5.469-10.484,22.271,22.271,0,0,1,18.1-7.551,24.554,24.554,0,0,1,9.02,2.214,15.912,15.912,0,0,1,6.138,4.69,2.251,2.251,0,0,1-3.641,2.648,11.631,11.631,0,0,0-4.4-3.256,19.979,19.979,0,0,0-7.351-1.8,17.718,17.718,0,0,0-14.519,6.063,20.008,20.008,0,0,0-4.508,17.729c1.3,6.159,5.046,11.167,10.011,13.4,12.669,5.694,24.088-3.893,31.436-12.937,6.094-7.5,14.159-30.148,21.275-50.129,1.413-3.967,2.8-7.869,4.145-11.561-.3-.225-.6-.448-.9-.678-12.778-9.764-23.649-22.424-30.144-29.986-1.415-1.648-2.637-3.07-3.647-4.2-5.639-6.289-20.894-18.635-38.271-20.354-12.941-1.28-34.33,4.784-40.216,26.75-2.58,9.628-4.606,27.8,10.81,41.355a40.479,40.479,0,0,0,48.23,4.17c7.708-4.755,12.025-11.933,14.29-17.116a42.791,42.791,0,0,0,3.09-10.165,2.226,2.226,0,0,1,.244-.771,2.261,2.261,0,0,1,.53-.66l0,0v0a2.249,2.249,0,0,1,1.067-.5,2.127,2.127,0,0,1,.519-.029,2.235,2.235,0,0,1,1.059.336h0s0,0,.006,0h0a2.309,2.309,0,0,1,.494.422,2.246,2.246,0,0,1,.56,1.52h0s0,0,0,.006h0v.008h0v.006s0,0,0,0a.027.027,0,0,1,0,0v.008a.055.055,0,0,0,0,.007s0,.006,0,.008v.011a2.274,2.274,0,0,1-.033.313,47.37,47.37,0,0,1-3.414,11.279,46.351,46.351,0,0,1-5.879,9.964,38.641,38.641,0,0,1-10.172,9.184,45.173,45.173,0,0,1-41.191,3.143,45.4,45.4,0,0,1-12.376-7.766,41.543,41.543,0,0,1-8.833-10.795,40.4,40.4,0,0,1-4.385-11.861,51.282,51.282,0,0,1,1.031-23.245,38.906,38.906,0,0,1,19.412-24.727,45.757,45.757,0,0,1,13.193-4.687,43.744,43.744,0,0,1,12.4-.653,53.564,53.564,0,0,1,13.5,3.239,70.693,70.693,0,0,1,11.789,5.786,74.262,74.262,0,0,1,15.886,12.8c1.042,1.162,2.279,2.6,3.71,4.27,6.344,7.387,16.936,19.722,29.248,29.179a156.773,156.773,0,0,1,6.816-16.347,69.207,69.207,0,0,1,7.04-11.053,35.227,35.227,0,0,1,9.266-8.4,26.261,26.261,0,0,1,12.221-3.784q.8-.047,1.624-.047a38.9,38.9,0,0,1,13.643,2.738,25.812,25.812,0,0,1,13.085,10.848,26.906,26.906,0,0,1,3.154,7.676,27.505,27.505,0,0,1-1.356,17.021,28.108,28.108,0,0,1-5.061,7.973,32,32,0,0,1-8.162,6.47,41.98,41.98,0,0,1-11.292,4.253,36.726,36.726,0,0,1-11.549.729,46.064,46.064,0,0,1-11.232-2.558,72.027,72.027,0,0,1-16.016-8.383c-1.2,3.325-2.447,6.814-3.708,10.355-3.663,10.286-7.451,20.923-11.187,30.156-4.378,10.822-7.821,17.591-10.835,21.3-5.655,6.96-11.546,11.764-17.509,14.277a24.826,24.826,0,0,1-9.569,2.045Zm54.491-82.5c13.233,9.226,25.4,12.651,36.2,10.19,13.663-3.112,22.291-11.829,23.078-23.315a21.97,21.97,0,0,0-14.034-22.322c-9.263-3.494-16.972-3.256-23.569.732-5.341,3.23-10,8.854-14.652,17.7A163.378,163.378,0,0,0,1860.1,9509.977Z" transform="translate(-1584.54 -9433.12)" fill="#fff"/>
    </g>
    <g transform="matrix(1, 0, 0, 1, -10.4, -20.61)" filter="url(#Path_183)">
      <path id="Path_183-2" data-name="Path 183" d="M1819.73,9539.241a26.266,26.266,0,0,1-9.674-1.974,28.211,28.211,0,0,1-11.534-8.03,24.067,24.067,0,0,1-4.843-9.6,27.052,27.052,0,0,1-.423-11.331l4.4.955v0a22.9,22.9,0,0,0,.431,9.447c1.734,6.648,6.318,11.486,13.625,14.379,7.255,2.871,13.942,1.969,18.826-2.545a18.847,18.847,0,0,0,5.286-18.7c-1.573-5.125-4.738-8.834-9.151-10.729a17.83,17.83,0,0,0-14.785.637,2.251,2.251,0,0,1-2.008-4.03,23.228,23.228,0,0,1,9.255-2.407,21.4,21.4,0,0,1,9.314,1.663,19.737,19.737,0,0,1,7.03,5.076,22.613,22.613,0,0,1,4.65,8.469,20.859,20.859,0,0,1,.895,6.2,23.547,23.547,0,0,1-.879,6.252,24.139,24.139,0,0,1-2.508,5.863,22.513,22.513,0,0,1-4.043,5.014,20.506,20.506,0,0,1-4.613,3.221,19.875,19.875,0,0,1-5.577,1.858A21.15,21.15,0,0,1,1819.73,9539.241Z" transform="translate(-1534.76 -9396.81)" fill="#fff"/>
    </g>
    <g transform="matrix(1, 0, 0, 1, -10.4, -20.61)" filter="url(#Path_184)">
      <path id="Path_184-2" data-name="Path 184" d="M1789.574,9486.563a2.248,2.248,0,0,1-1.717-.793q-.357-.422-.693-.813c-3.26-3.826-5.227-6.136-5.844-9.129-.6-2.935.146-5.985,2.056-11.717,2.3-6.91,6.859-12.213,12.5-14.548,4.939-2.047,10.362-1.722,15.682.938a13.039,13.039,0,0,1,4.5,3.731,15.952,15.952,0,0,1,2.6,5.128,20.425,20.425,0,0,1-.014,11.644,17.053,17.053,0,0,1-6.078,9,15.1,15.1,0,0,1-5.3,2.508,18.293,18.293,0,0,1-6.58.384,2.251,2.251,0,1,1,.509-4.474,16.092,16.092,0,0,0,1.807.105c8.05,0,10.685-6.645,11.325-8.8,1.625-5.479.28-12.66-4.785-15.193-4.117-2.061-8.248-2.339-11.945-.808-4.432,1.836-8.058,6.141-9.949,11.813-3.126,9.376-3.126,9.376,2.943,16.5.225.264.457.535.7.817a2.251,2.251,0,0,1-1.714,3.709Z" transform="translate(-1544.71 -9433.23)" fill="#fff"/>
    </g>
    <g transform="matrix(1, 0, 0, 1, -10.4, -20.61)" filter="url(#Path_186)">
      <path id="Path_186-2" data-name="Path 186" d="M1553.972,9514.676a20.241,20.241,0,0,1-5.246-.565,18.789,18.789,0,0,1-7.94-4.643c-3.97-3.61-6.157-9.718-5.572-15.559a17.8,17.8,0,0,1,2.6-7.7,20.337,20.337,0,0,1,16.572-9.249h.065a17.958,17.958,0,0,1,8.857,2.336,17.242,17.242,0,0,1,6.091,5.778,15.189,15.189,0,0,1,2.37,8.078,2.251,2.251,0,1,1-4.5,0,11.678,11.678,0,0,0-6.181-9.94,13.91,13.91,0,0,0-14.305.467,13.723,13.723,0,0,0-7.086,10.681c-.441,4.4,1.215,9.137,4.12,11.778,4.594,4.176,7.31,4.114,12.24,4,.819-.019,1.665-.037,2.581-.037a2.251,2.251,0,1,1,0,4.5c-.865,0-1.686.019-2.48.036C1555.4,9514.659,1554.679,9514.676,1553.972,9514.676Z" transform="translate(-1195.08 -9411.85)" fill="#fff"/>
    </g>
    <g transform="matrix(1, 0, 0, 1, -10.4, -20.61)" filter="url(#Path_187)">
      <path id="Path_187-2" data-name="Path 187" d="M1591.274,9577.117a22.7,22.7,0,0,1-5.076-.6,22.269,22.269,0,0,1-8.57-3.968,15.739,15.739,0,0,1-4.075-4.6,13.33,13.33,0,0,1-1.764-6.238,2.251,2.251,0,1,1,4.5-.149,9.6,9.6,0,0,0,4.1,7.431,17.843,17.843,0,0,0,13.576,3.352c2.882-.641,5.875-3.186,8.006-6.811a17.613,17.613,0,0,0,2.5-11.525c-1.366-7.621-6.8-11.485-16.155-11.485a17.992,17.992,0,0,0-9.631,2.428,9.746,9.746,0,0,0-2.76,2.417l.014-.021-3.786-2.439a13.421,13.421,0,0,1,3.865-3.6,19.386,19.386,0,0,1,4.992-2.28,25.446,25.446,0,0,1,7.306-1.01c5.685,0,10.354,1.31,13.878,3.893a16.155,16.155,0,0,1,4.391,4.857,19.351,19.351,0,0,1,2.318,6.445,21.9,21.9,0,0,1-3.046,14.6,22.412,22.412,0,0,1-4.7,5.685,14.494,14.494,0,0,1-6.21,3.24A17,17,0,0,1,1591.274,9577.117Z" transform="translate(-1164.39 -9359.93)" fill="#fff"/>
    </g>
  </g>
</svg>
