<svg xmlns="http://www.w3.org/2000/svg" width="559.2" height="54.4" viewBox="0 0 559.2 54.4">
  <path id="click-on-the-spark" d="M-265.35-4.9a.231.231,0,0,1-.25.15q-.45,0-.3-.4a18.842,18.842,0,0,1,3.5-4.45,23.366,23.366,0,0,1,5.7-4.025,19.78,19.78,0,0,1,7.45-2.075,4.615,4.615,0,0,1,.65-.05h.65q3.25,0,4.7,1.425A4.215,4.215,0,0,1-242-10.75a10.46,10.46,0,0,1-2.125,5.5,17.136,17.136,0,0,1-4.8,4.3A25.14,25.14,0,0,1-255.3,1.825a25.1,25.1,0,0,1-6.85.975,17.873,17.873,0,0,1-6.675-1.225,10.905,10.905,0,0,1-4.95-3.85A11.571,11.571,0,0,1-275.65-9.15v-.8a6.445,6.445,0,0,1,.05-.8,20.906,20.906,0,0,1,1.825-6.6,27.439,27.439,0,0,1,4.15-6.5,31.1,31.1,0,0,1,6.2-5.55,31.621,31.621,0,0,1,7.925-3.9,29.386,29.386,0,0,1,9.35-1.45,8.041,8.041,0,0,1,4.875,1.2,3.473,3.473,0,0,1,1.575,2.8,4.439,4.439,0,0,1-.95,2.575,8.206,8.206,0,0,1-2.75,2.325,19.15,19.15,0,0,1-4.375,1.725,35.122,35.122,0,0,1-4.575.9q-2.2.275-3.65.425h-.05a.133.133,0,0,1-.15-.15q0-.25.35-.3a33.827,33.827,0,0,0,6.45-1.325A24.684,24.684,0,0,0-244-26.9a6.293,6.293,0,0,0,2-1.85,3.884,3.884,0,0,0,.75-2.2,2.684,2.684,0,0,0-1.225-2.175,6.9,6.9,0,0,0-4.075-.925,22.818,22.818,0,0,0-8.125,1.425,25.566,25.566,0,0,0-6.85,3.85,28.8,28.8,0,0,0-5.35,5.5,28.473,28.473,0,0,0-3.6,6.4A23.513,23.513,0,0,0-272.1-10.4q-.05.5-.075.95t-.025.9a11.964,11.964,0,0,0,1.45,6.25,8.5,8.5,0,0,0,3.85,3.475,12.7,12.7,0,0,0,5.25,1.075,18.729,18.729,0,0,0,5.95-1,22.506,22.506,0,0,0,5.6-2.775A16.458,16.458,0,0,0-245.825-5.7a10.16,10.16,0,0,0,1.875-5.15,3.782,3.782,0,0,0-1.075-3.275q-1.275-1.225-4.225-.975a19.267,19.267,0,0,0-7.2,2.025A23.1,23.1,0,0,0-261.975-9.2,17.337,17.337,0,0,0-265.35-4.9ZM-238.1.5a3.274,3.274,0,0,1-2.8-1.075,4.441,4.441,0,0,1-.8-2.725,13.3,13.3,0,0,1,.475-3.325,29.762,29.762,0,0,1,1.2-3.625q.725-1.8,1.45-3.3T-237.4-16q.9-1.85,2.25-4.25t3-4.925a51.188,51.188,0,0,1,3.525-4.775,29.579,29.579,0,0,1,3.875-3.9,11.587,11.587,0,0,1,4-2.25,3.833,3.833,0,0,1,1-.15,2.163,2.163,0,0,1,1.425.475,2,2,0,0,1,.575,1.625,6.581,6.581,0,0,1-.4,2,16.567,16.567,0,0,1-2.2,3.875,49.845,49.845,0,0,1-3.65,4.4q-2.1,2.275-4.425,4.475t-4.525,4.1q-2.2,1.9-3.9,3.25-.3.8-.925,2.35A34.254,34.254,0,0,0-238.9-6.425a11.473,11.473,0,0,0-.5,3.175,3.542,3.542,0,0,0,.55,2.05,2.14,2.14,0,0,0,1.9.8,4.024,4.024,0,0,0,1.825-.5A6.9,6.9,0,0,0-233.2-2.45a18.248,18.248,0,0,0,2.275-2.925Q-229.9-7-229.35-8a.16.16,0,0,1,.15-.1q.15,0,.15.35a1.686,1.686,0,0,1-.2.75,21.961,21.961,0,0,1-1.575,2.65A17.382,17.382,0,0,1-233.2-1.5a6.576,6.576,0,0,1-2.3,1.475A7.161,7.161,0,0,1-238.1.5Zm1.8-13.7q1.55-1.35,3.6-3.225t4.2-4.025q2.15-2.15,4.075-4.3t3.35-4.05a13.226,13.226,0,0,0,1.925-3.3,6.687,6.687,0,0,0,.45-2q0-1.3-1.15-1.3a3.452,3.452,0,0,0-1.55.475,6.845,6.845,0,0,0-1.65,1.225,29.256,29.256,0,0,0-2.925,3.425Q-227.65-28.05-229.5-25.2t-3.625,5.95Q-234.9-16.15-236.3-13.2ZM-228.1.3a2.331,2.331,0,0,1-2.05-.925A3.858,3.858,0,0,1-230.8-2.9a4.744,4.744,0,0,1,.075-.825q.075-.425.175-.875a27.808,27.808,0,0,1,1.725-4.475q1.175-2.475,2.275-4.425a6.46,6.46,0,0,1,1.2-1.575,3.656,3.656,0,0,1,1.2-.7q.65-.225,1.55-.525a2.851,2.851,0,0,1,.5-.15q.25-.05.55-.1a20.618,20.618,0,0,0-2.025,2.4A26.16,26.16,0,0,0-225.8-10.3q-.65,1.3-1.275,2.9t-1.075,3a9.713,9.713,0,0,0-.5,2.2,2.116,2.116,0,0,0,.25,1.35.95.95,0,0,0,.8.4,2.618,2.618,0,0,0,1.625-.6A11.173,11.173,0,0,0-224.6-2.3a23.728,23.728,0,0,0,2.075-2.75q.975-1.5,1.925-3.2.15-.2.25-.2.2,0,.2.3a.711.711,0,0,1-.1.4q-.9,1.65-1.9,3.3a16.419,16.419,0,0,1-2.45,3.1A7.175,7.175,0,0,1-226.125-.2,3.909,3.909,0,0,1-228.1.3Zm6.112-19.675a1.235,1.235,0,0,1-.945-.394,1.3,1.3,0,0,1-.368-.919,1.726,1.726,0,0,1,.577-1.286,2.028,2.028,0,0,1,1.26-.6,1.279,1.279,0,0,1,.945.368,1.279,1.279,0,0,1,.368.945,1.883,1.883,0,0,1-.551,1.286A1.693,1.693,0,0,1-221.987-19.375ZM-215.1.45a5.876,5.876,0,0,1-4.425-1.625A5.815,5.815,0,0,1-221.1-5.4a10.311,10.311,0,0,1,.2-1.975,11.386,11.386,0,0,1,.65-2.125,15.189,15.189,0,0,1,1.95-3.375,10.087,10.087,0,0,1,2.875-2.575,7.037,7.037,0,0,1,3.675-1,3.49,3.49,0,0,1,2.325.7,2.419,2.419,0,0,1,.825,1.95,5.18,5.18,0,0,1-.075.85,4.076,4.076,0,0,1-.325,1,6.218,6.218,0,0,1-.9,1.6,4.312,4.312,0,0,1-1.25,1.1,1.584,1.584,0,0,1-.8.2,1.149,1.149,0,0,1-.65-.2.724.724,0,0,1-.3-.65,2.634,2.634,0,0,1,.875-1.725,3.154,3.154,0,0,1,2.275-.975,3.263,3.263,0,0,0,.25-1.15,2.025,2.025,0,0,0-.5-1.375,1.947,1.947,0,0,0-1.55-.575,4.118,4.118,0,0,0-2.55.975,9.578,9.578,0,0,0-2.225,2.55A16.408,16.408,0,0,0-217.9-8.85,11.637,11.637,0,0,0-218.6-5a5.816,5.816,0,0,0,.9,3.3,3.337,3.337,0,0,0,3,1.35,6.135,6.135,0,0,0,3.775-1.175,12.448,12.448,0,0,0,2.775-2.9q1.2-1.725,2.1-3.325.1-.15.2-.15.2,0,.2.4a1.245,1.245,0,0,1-.15.55,35.178,35.178,0,0,1-2.175,3.4,11.416,11.416,0,0,1-2.95,2.85A7.354,7.354,0,0,1-215.1.45Zm18.85,0A3.519,3.519,0,0,1-199-.6a5.842,5.842,0,0,1-1.325-2.575A12.246,12.246,0,0,1-200.7-6.1a13.255,13.255,0,0,1,.275-2.65,5.382,5.382,0,0,1,1.025-2.3,3.12,3.12,0,0,1,1.075-.85q.625-.3.525.05a.888.888,0,0,0-.1.4.815.815,0,0,0,.45.625,2.017,2.017,0,0,0,1,.225,4.494,4.494,0,0,0,1.275-.2,4,4,0,0,0,1.225-.6,4.546,4.546,0,0,0,1.15-1.175,2.644,2.644,0,0,0,.5-1.525,1.259,1.259,0,0,0-.425-1.1,1.648,1.648,0,0,0-.975-.3,3.366,3.366,0,0,0-.55.05,2.652,2.652,0,0,0-.55.15,8.94,8.94,0,0,0-3.175,1.875,21.6,21.6,0,0,0-2.95,3.175,42.122,42.122,0,0,0-2.475,3.6q-.7,1.2-1.5,2.775a13.7,13.7,0,0,0-1.05,2.525,1.618,1.618,0,0,1-.825,1.15,2.638,2.638,0,0,1-1.175.225Q-208.55,0-208.9,0q.25-.7.675-1.9t.875-2.425q.45-1.225.75-1.925,1.3-3.2,2.825-6.85t3.3-7.275a60.075,60.075,0,0,1,3.9-6.825,31.253,31.253,0,0,1,4.6-5.525A15.578,15.578,0,0,1-186.6-36.1q.25-.05.55-.1a3.644,3.644,0,0,1,.6-.05,2.465,2.465,0,0,1,1.35.35,1.7,1.7,0,0,1,.7,1.55,5.627,5.627,0,0,1-.45,2,18,18,0,0,1-2.6,4.3,48.344,48.344,0,0,1-4.25,4.7q-2.9,2.75-5.55,4.925t-4.4,3.475q-1.05,2.3-1.75,4.075t-.95,2.475a37.735,37.735,0,0,1,2.45-3.175,17.463,17.463,0,0,1,2.75-2.625,9.6,9.6,0,0,1,5.65-2.25,2.206,2.206,0,0,1,2.05.9,1.129,1.129,0,0,1,.2.5,3.366,3.366,0,0,1,.05.55,3.9,3.9,0,0,1-.5,1.875,4.109,4.109,0,0,1-1.2,1.425,6.873,6.873,0,0,1-1.875.975,6.288,6.288,0,0,1-2.075.375,3.435,3.435,0,0,1-1.8-.45l-.4-.25q-.1.75-.2,1.725a19.851,19.851,0,0,0-.1,2.025q0,.5.025.975t.075.975q.1.8.325,1.825a4.645,4.645,0,0,0,.775,1.775,1.851,1.851,0,0,0,1.45.8,2.72,2.72,0,0,0,1.65-.6A8.207,8.207,0,0,0-192.7-2.3a18.952,18.952,0,0,0,1.975-2.525Q-189.9-6.1-188.65-8.4q.1-.15.15-.15.2,0,.2.45a1.331,1.331,0,0,1-.15.6q-.8,1.5-1.8,3.15a16.419,16.419,0,0,1-2.45,3.1,7.319,7.319,0,0,1-1.575,1.175A3.938,3.938,0,0,1-196.25.45Zm-3.95-16.4a63.829,63.829,0,0,0,5.15-4.3q2.3-2.15,4.7-4.65.7-.75,1.825-2t2.2-2.7a12.988,12.988,0,0,0,1.625-2.8,5.382,5.382,0,0,0,.5-1.95q0-1.35-1.2-1.35a3.293,3.293,0,0,0-1.45.4,5.781,5.781,0,0,0-1.5,1.1,33.821,33.821,0,0,0-4.55,5.35,70.93,70.93,0,0,0-4.05,6.525Q-198.8-18.95-200.2-15.95ZM-176.5,1a4.758,4.758,0,0,1-3.275-1.225A4.8,4.8,0,0,1-181.15-4a10.5,10.5,0,0,1,.575-3.325A21.374,21.374,0,0,1-179.3-10.4a15.945,15.945,0,0,1,3.275-4.275A6.721,6.721,0,0,1-171.3-16.5q2.65,0,3.7,1.45a5.891,5.891,0,0,1,1.05,3.55,10.64,10.64,0,0,1-.15,1.75A14.94,14.94,0,0,1-168.35-5a2.774,2.774,0,0,0,.925.825,2.546,2.546,0,0,0,1.275.325,3.276,3.276,0,0,0,2.05-.65,6.3,6.3,0,0,0,1.475-1.625Q-162-7.1-161.55-7.95q.3-.55.55-.55.15,0,.15.2a3.256,3.256,0,0,1-.3.9,12.734,12.734,0,0,1-2,2.95,3.887,3.887,0,0,1-3,1.25,3.052,3.052,0,0,1-2.6-1.2,14.056,14.056,0,0,1-3.4,3.85A6.953,6.953,0,0,1-176.5,1Zm.1-.6A6.954,6.954,0,0,0-171.55-2a13.254,13.254,0,0,0,1.275-1.475A14.925,14.925,0,0,0-169.25-5.05a4.555,4.555,0,0,1-.925-1.625,5.583,5.583,0,0,1-.275-1.675,5.253,5.253,0,0,1,.45-2.225,1.389,1.389,0,0,1,1.25-.975,1.074,1.074,0,0,1,.775.4A2.167,2.167,0,0,1-167.5-9.9a7.152,7.152,0,0,0,.15-1.5,5.684,5.684,0,0,0-.7-3.025,2.55,2.55,0,0,0-2.35-1.125,3.467,3.467,0,0,0-2.05.775,11.558,11.558,0,0,0-1.975,1.875,18.216,18.216,0,0,0-1.625,2.25,20.6,20.6,0,0,0-1.05,1.9,20.159,20.159,0,0,0-1.225,3.3A10.355,10.355,0,0,0-178.7-2.9a3.864,3.864,0,0,0,.675,2.45A2.017,2.017,0,0,0-176.4.4Zm23.95-.1a2.932,2.932,0,0,1-2.275-.9,3.2,3.2,0,0,1-.825-2.25,5.4,5.4,0,0,1,.25-1.5,16.2,16.2,0,0,1,2.225-4.375,28.482,28.482,0,0,0,2.525-4.325,2.854,2.854,0,0,0,.35-1.25,1.02,1.02,0,0,0-.325-.825,1.161,1.161,0,0,0-.775-.275,3.631,3.631,0,0,0-1.625.525A8.592,8.592,0,0,0-155.15-12.9q-.75.9-1.7,2.2a25.536,25.536,0,0,0-1.55,2.35q-1,1.7-1.8,3.425t-1.4,3.175a2.714,2.714,0,0,1-1.2,1.475A2.694,2.694,0,0,1-164.15,0a4.9,4.9,0,0,0-1,0q1.4-2.75,2.75-5.8a56.814,56.814,0,0,0,2.3-6.1q.45-1.4.75-2.725a6.594,6.594,0,0,0,.25-1.725v-.1q0-.4.4-.2a1.871,1.871,0,0,1,.9,1.025,4.368,4.368,0,0,1,.25,1.525,8.957,8.957,0,0,1-.25,2.025,12.51,12.51,0,0,1-.6,1.925q.65-.9,1.4-1.825a18.267,18.267,0,0,1,1.65-1.775,13.659,13.659,0,0,1,2.25-1.825,4.7,4.7,0,0,1,2.6-.775,2.773,2.773,0,0,1,1.975.6,2.115,2.115,0,0,1,.625,1.6,6.026,6.026,0,0,1-.6,2.4,24.68,24.68,0,0,1-1.575,3.1q-.925,1.55-1.675,3-.15.3-.475.925A9.467,9.467,0,0,0-152.8-3.35q-.1.35-.2.725a3,3,0,0,0-.1.775,1.946,1.946,0,0,0,.225.925A.9.9,0,0,0-152-.5a2.688,2.688,0,0,0,1.625-.575A7.853,7.853,0,0,0-149.05-2.3a19.986,19.986,0,0,0,2.125-2.775Q-145.95-6.6-145-8.3q.15-.2.2-.2.2,0,.2.45a.818.818,0,0,1-.1.45q-.9,1.65-1.9,3.225a17.731,17.731,0,0,1-2.45,3.025,7.448,7.448,0,0,1-1.5,1.15A3.677,3.677,0,0,1-152.45.3Zm17.35.05a3.313,3.313,0,0,1-2.05-.725,2.8,2.8,0,0,1-.95-2.375,10.35,10.35,0,0,1,.85-3.85q.85-2.1,1.6-3.75.4-.8,1.075-2.175t1.475-2.725h-2.35q-.15,0-.15-.25a.775.775,0,0,1,.15-.425.424.424,0,0,1,.35-.225,6.632,6.632,0,0,0,2.1-.25,3.56,3.56,0,0,0,1.2-.7,10.134,10.134,0,0,0,1.575-1.8,17.61,17.61,0,0,1,1.525-1.9,3.418,3.418,0,0,1,1.375-1.05,1.845,1.845,0,0,1,1.075-.25q-.25.35-.8,1.2t-1.15,1.85q-.6,1-1.1,1.85t-.65,1.15h6.2q1.3-2.85,2.975-6a54.176,54.176,0,0,1,3.725-6.025A30.408,30.408,0,0,1-112.6-33.1a13.9,13.9,0,0,1,5.1-3l.6-.1a3.644,3.644,0,0,1,.6-.05,2.37,2.37,0,0,1,1.3.35,1.754,1.754,0,0,1,.7,1.6,5.544,5.544,0,0,1-.45,1.95,17.643,17.643,0,0,1-2.625,4.3,51.06,51.06,0,0,1-4.275,4.7q-3.05,2.95-5.85,5.2T-122-14.6q-1,2.15-1.65,3.725T-124.5-8.6q.8-1.2,1.825-2.625a18.426,18.426,0,0,1,1.825-2.225,17.039,17.039,0,0,1,2.3-1.95,4.712,4.712,0,0,1,2.25-.9,3.548,3.548,0,0,1,2.45.425,1.982,1.982,0,0,1,.75,1.675,6.11,6.11,0,0,1-.6,2.45,26.882,26.882,0,0,1-1.55,3.1q-.9,1.55-1.65,3-.2.4-.725,1.525A7.8,7.8,0,0,0-118.3-2a.684.684,0,0,1-.025.15.822.822,0,0,0-.025.2,1.065,1.065,0,0,0,.3.825,1,1,0,0,0,.7.275,2.657,2.657,0,0,0,1.6-.55,7.506,7.506,0,0,0,1.3-1.2,19.305,19.305,0,0,0,2.1-2.75q.95-1.5,1.9-3.2a.4.4,0,0,1,.3-.2q.2,0,.2.3a.711.711,0,0,1-.1.4q-.9,1.65-1.925,3.3a17.273,17.273,0,0,1-2.475,3.1,8.211,8.211,0,0,1-1.5,1.175,3.543,3.543,0,0,1-1.9.525,2.685,2.685,0,0,1-2.375-.975A3.734,3.734,0,0,1-120.9-2.8a5.463,5.463,0,0,1,.35-1.9,17.5,17.5,0,0,1,2.35-4.2,23.267,23.267,0,0,0,2.5-4.15,2.56,2.56,0,0,0,.35-1.2,1.12,1.12,0,0,0-.35-.9,1.134,1.134,0,0,0-.75-.3,3.6,3.6,0,0,0-2.075.825A12.6,12.6,0,0,0-120.7-12.55q-.95,1.1-1.95,2.525T-124.55-7q-.85,1.45-1.75,3.025T-127.75-1.3a2.37,2.37,0,0,1-.85,1.1,1.759,1.759,0,0,1-.85.25,3.222,3.222,0,0,1-.4-.025A2.867,2.867,0,0,0-130.2,0a40.314,40.314,0,0,1,1.675-4.675Q-127.3-7.65-125.6-11.75q.35-.8.7-1.675t.8-1.825h-6.3q-.9,1.55-2.125,4.025T-134.7-6.45q-.1.3-.4,1.075a13.652,13.652,0,0,0-.525,1.7,7.323,7.323,0,0,0-.225,1.725,2.236,2.236,0,0,0,.25,1.1.939.939,0,0,0,.9.45,2.6,2.6,0,0,0,1.5-.525A4.037,4.037,0,0,0-132.05-2.1q.15-.2.2-.2.15,0,.15.3a1.1,1.1,0,0,1-.35.8,6.12,6.12,0,0,1-1.325,1.075A3.236,3.236,0,0,1-135.1.35Zm13.55-15.95a58.263,58.263,0,0,0,5.4-4.45q2.4-2.25,4.85-4.85.7-.75,1.825-2t2.225-2.7a12.5,12.5,0,0,0,1.65-2.8,5.082,5.082,0,0,0,.5-1.95q0-1.35-1.25-1.35a3.293,3.293,0,0,0-1.45.4,5.78,5.78,0,0,0-1.5,1.1,35.6,35.6,0,0,0-4.675,5.475,74.794,74.794,0,0,0-4.2,6.675Q-120.1-18.6-121.55-15.6ZM-104.95.45a6.039,6.039,0,0,1-4.425-1.55,5.559,5.559,0,0,1-1.575-4.15,10.078,10.078,0,0,1,.2-1.925A11.387,11.387,0,0,1-110.1-9.3a18.485,18.485,0,0,1,1.8-3.25,10.742,10.742,0,0,1,2.65-2.7,6.777,6.777,0,0,1,3.45-1.25,4.126,4.126,0,0,1,1.3.1,2.225,2.225,0,0,1,1.05.6,1.964,1.964,0,0,1,.575.875A3.378,3.378,0,0,1-99.1-13.85a6.017,6.017,0,0,1-.95,3.125,8.836,8.836,0,0,1-2.4,2.625,5.053,5.053,0,0,1-3,1.05,3.441,3.441,0,0,1-2.45-1,11.071,11.071,0,0,0-.45,3.1,5.723,5.723,0,0,0,.875,3.225A3.351,3.351,0,0,0-104.45-.4a6.145,6.145,0,0,0,3.725-1.15,11.61,11.61,0,0,0,2.75-2.875Q-96.8-6.15-95.9-7.75q.1-.15.2-.15.2,0,.2.4a1.245,1.245,0,0,1-.15.55,35.18,35.18,0,0,1-2.175,3.4,11.416,11.416,0,0,1-2.95,2.85A7.354,7.354,0,0,1-104.95.45Zm-2.7-9.25a2.119,2.119,0,0,0,.825.725,2.254,2.254,0,0,0,.975.225,4.345,4.345,0,0,0,2.5-.925,7.877,7.877,0,0,0,2.1-2.175,5.985,5.985,0,0,0,.625-1.45,5.826,5.826,0,0,0,.275-1.7,2.6,2.6,0,0,0-.275-1.225,1.1,1.1,0,0,0-1.075-.525,3.474,3.474,0,0,0-2.125,1.1,13.341,13.341,0,0,0-2.325,2.85q-.35.6-.775,1.4A11.092,11.092,0,0,0-107.65-8.8ZM-86.1.4a4.347,4.347,0,0,1-1.925-.425A3.223,3.223,0,0,1-89.45-1.5a4.747,4.747,0,0,1-.4-1.95,5.228,5.228,0,0,1,.4-2.05,8.125,8.125,0,0,1,.9-1.5,1.787,1.787,0,0,1,1.1-.75q.45-1,1.375-2.65a36.287,36.287,0,0,1,2.1-3.3,18.489,18.489,0,0,1,2.225-2.65q.25-.25.875-.825a11.83,11.83,0,0,1,1.45-1.125,3.782,3.782,0,0,1,1.525-.65,1.3,1.3,0,0,1,.4-.05,1.222,1.222,0,0,1,.9.3.959.959,0,0,1,.3.7,1.33,1.33,0,0,1-.3.8,2.086,2.086,0,0,1-.95.65q-.25.05-.725.15a7.129,7.129,0,0,1-1.375.1A2.415,2.415,0,0,0-80-14.9a9.036,9.036,0,0,0,.325,2.25q.325,1.25.65,2.425A7.657,7.657,0,0,1-78.7-8.25a9.412,9.412,0,0,1-.575,3.725A7.692,7.692,0,0,1-81.4-1.35l-.7.5a1.974,1.974,0,0,0,.3.075,1.822,1.822,0,0,0,.3.025,4.318,4.318,0,0,0,1.9-.525A7.059,7.059,0,0,0-77.75-2.6a14.982,14.982,0,0,0,2.075-2.45,31.313,31.313,0,0,0,1.625-2.7.236.236,0,0,1,.25-.2q.25,0,.25.4a.9.9,0,0,1-.15.45,28.339,28.339,0,0,1-1.825,2.925A15.778,15.778,0,0,1-77.75-1.6,5.993,5.993,0,0,1-79.675-.425,5.211,5.211,0,0,1-81.4-.05a2.6,2.6,0,0,1-.8-.1,1.77,1.77,0,0,1-.55-.3,9.126,9.126,0,0,1-1.575.6A6.431,6.431,0,0,1-86.1.4Zm1.9-1.3a4.977,4.977,0,0,0,1.575-1.8,10.179,10.179,0,0,0,.875-2.35,14.66,14.66,0,0,0,.475-3.1q.075-1.6.075-2.9V-12.8a8.847,8.847,0,0,1,.275-2.15,2.865,2.865,0,0,1,.575-1.35A4.725,4.725,0,0,0-82-14.975a21.408,21.408,0,0,0-1.8,2.4Q-84.7-11.2-85.425-9.9T-86.55-7.75a1.309,1.309,0,0,1,1.3.525q.35.575.2.825a2.757,2.757,0,0,0-.55-.1,2.129,2.129,0,0,0-1.4.55,3.847,3.847,0,0,0-1.1,1.475A4.469,4.469,0,0,0-88.55-2.6a2.089,2.089,0,0,0,.7,1.75A2.592,2.592,0,0,0-86.2-.3,3.527,3.527,0,0,0-84.2-.9Zm-4.85,17.65a9.357,9.357,0,0,1-3.15.55,7.528,7.528,0,0,1-3.95-1.05,3.481,3.481,0,0,1-1.75-3.2,5.86,5.86,0,0,1,.05-.775,4.527,4.527,0,0,1,.2-.825q.15-.35.225-.275a.388.388,0,0,1,.075.275,4.463,4.463,0,0,0,1.675,3.75A6.143,6.143,0,0,0-91.8,16.5a7.618,7.618,0,0,0,2.6-.45,10.013,10.013,0,0,0,3.65-2.2,18.926,18.926,0,0,0,2.75-3.2,36.2,36.2,0,0,0,2.2-3.7q1.1-2.1,2.1-4.4t1.9-4.475Q-75.7-4.1-75.05-5.8q.75-1.95,1.775-4.25T-71-14.675a31.48,31.48,0,0,1,2.725-4.25A16.118,16.118,0,0,1-65.2-22.05a3.845,3.845,0,0,1,2.4-.9h.375a.843.843,0,0,1,.375.1q.1.05.1.125t-.2.075a3.015,3.015,0,0,0-1.2.475,6.968,6.968,0,0,0-1.7,1.775q-.4.6-1.775,2.55a26.678,26.678,0,0,0-2.575,4.7,10.892,10.892,0,0,1,2.7-2.35,4.706,4.706,0,0,1,2.25-.7,2.6,2.6,0,0,1,2.2.8,3.24,3.24,0,0,1,.6,2,8.2,8.2,0,0,1-.375,2.35,18.732,18.732,0,0,1-.9,2.4Q-63.45-7.5-63.9-6.7a11.6,11.6,0,0,1-1.05,1.55q-.7.9-1.6,1.85a1.48,1.48,0,0,0,.625,1A2.062,2.062,0,0,0-64.8-2a4.087,4.087,0,0,0,1.475-.3,4.093,4.093,0,0,0,1.275-.75,12.345,12.345,0,0,0,2.1-2.25A28.739,28.739,0,0,0-58.2-8q.05-.1.075-.1h.025q.1,0,.1.45v.375a.574.574,0,0,1-.1.325,23.242,23.242,0,0,1-1.75,2.675A9.694,9.694,0,0,1-62.05-2.2a7.485,7.485,0,0,1-1.425.675A4.541,4.541,0,0,1-65-1.25a2.646,2.646,0,0,1-1.325-.325A1.838,1.838,0,0,1-67.15-2.65a18.3,18.3,0,0,1-2.025,1.625A4.865,4.865,0,0,1-71.6-.1a1.55,1.55,0,0,1-.375.05H-72.3A1.955,1.955,0,0,1-74.45-1.4a41.893,41.893,0,0,1-2.1,4.85,44.265,44.265,0,0,1-3.2,5.375,28.218,28.218,0,0,1-4.175,4.8A15.064,15.064,0,0,1-89.05,16.75ZM-72.6-.8a2.969,2.969,0,0,0,1.825-.725,11.005,11.005,0,0,0,1.8-1.825q.875-1.1,1.65-2.3T-66.05-7.8q.3-.5.8-1.575a19.874,19.874,0,0,0,.9-2.325,7.349,7.349,0,0,0,.4-2.2A2.068,2.068,0,0,0-64.2-15a1.032,1.032,0,0,0-.95-.4,2.954,2.954,0,0,0-1.825.9,15.278,15.278,0,0,0-2.05,2.25Q-70.05-10.9-70.9-9.55q-.2.35-.7,1.2T-72.625-6.4a20.363,20.363,0,0,0-.9,2.2A6.143,6.143,0,0,0-73.9-2.25Q-73.9-.8-72.6-.8ZM-47.7.35A2.331,2.331,0,0,1-49.9-.675a4.42,4.42,0,0,1-.6-2.275,8.614,8.614,0,0,1,.075-.875Q-50.35-4.45-50.25-5q-.7.95-1.675,2.1A14.455,14.455,0,0,1-53.9-.95,4.809,4.809,0,0,1-56.8.35,2.158,2.158,0,0,1-58.725-.7,4.812,4.812,0,0,1-59.4-3.35a10.476,10.476,0,0,1,.9-4.15,17.677,17.677,0,0,1,2.375-3.975A17.615,17.615,0,0,1-52.85-14.7a9.017,9.017,0,0,1,2.575-1.225A10.287,10.287,0,0,1-47.2-16.4a8.311,8.311,0,0,1,3.075.525A3.329,3.329,0,0,1-42.3-14.4a26.269,26.269,0,0,0-2.15,3.325Q-45.55-9.1-46.35-7.5q-.55,1.1-1.2,2.725A7.721,7.721,0,0,0-48.2-2a2.219,2.219,0,0,0,.25,1A.961.961,0,0,0-47-.5a2.458,2.458,0,0,0,1.55-.6A8.669,8.669,0,0,0-44.2-2.3a19.3,19.3,0,0,0,2.1-2.75q.95-1.5,1.9-3.2a.4.4,0,0,1,.3-.2q.2,0,.2.3a.711.711,0,0,1-.1.4q-.85,1.65-1.9,3.3a18.2,18.2,0,0,1-2.5,3.1,6.776,6.776,0,0,1-1.65,1.2A3.96,3.96,0,0,1-47.7.35Zm-8-1.55a3.236,3.236,0,0,0,2.075-1.025,16.569,16.569,0,0,0,2.2-2.5q1.075-1.475,1.95-2.85T-48.1-9.7a28.867,28.867,0,0,1,1.95-2.75,5.742,5.742,0,0,1,2.8-1.7.554.554,0,0,0,.175-.025A.554.554,0,0,1-43-14.2a2.72,2.72,0,0,0-1.5-1.05,6.463,6.463,0,0,0-2.05-.35,5.856,5.856,0,0,0-3,.85A11.547,11.547,0,0,0-52.2-12.6a35.97,35.97,0,0,0-2.25,2.95A17.314,17.314,0,0,0-56.225-6.4,8.317,8.317,0,0,0-56.9-3.25a3.506,3.506,0,0,0,.275,1.425A.947.947,0,0,0-55.7-1.2ZM-33.25.35a3.463,3.463,0,0,1-2.625-.875A2.984,2.984,0,0,1-36.7-2.65a5.184,5.184,0,0,1,.45-2.05,12.964,12.964,0,0,1,1.525-2.85q.925-1.3,1.925-2.625a17.176,17.176,0,0,0,1.75-2.875,2.489,2.489,0,0,0,.3-1.1,1.15,1.15,0,0,0-.425-.975,1.426,1.426,0,0,0-.875-.325,3.685,3.685,0,0,0-1.35.3,15.127,15.127,0,0,0-1.5.7q-.7.4-1.35.85a2.577,2.577,0,0,1-1.1.5A15.287,15.287,0,0,1-38-11.375q-.5,1.175-1.2,2.55T-40.65-6.25q-.2.3-.35.3t-.15-.3A.9.9,0,0,1-41-6.8q1-1.8,1.75-3.45a27.2,27.2,0,0,0,1.15-2.9,1.069,1.069,0,0,1-.875-.4,1.539,1.539,0,0,1-.225-.85,3.477,3.477,0,0,1,.225-1.175q.225-.625.375-.975a5.974,5.974,0,0,0,1.775.55,12.646,12.646,0,0,0,1.925.15q1.15,0,2.25-.1t2-.1a1.691,1.691,0,0,1,1.425.5,2.025,2.025,0,0,1,.375,1.25,5.224,5.224,0,0,1-.325,1.725A13.459,13.459,0,0,1-29.8-11.05a20.289,20.289,0,0,1-1.425,2.375Q-32.1-7.4-32.85-6.05a10.376,10.376,0,0,0-1.05,2.6,5.188,5.188,0,0,0-.15,1.15,1.8,1.8,0,0,0,.425,1.35,1.442,1.442,0,0,0,1.025.4,3.737,3.737,0,0,0,1.8-.525A5.284,5.284,0,0,0-29.3-2.25a18.052,18.052,0,0,0,2.1-2.8q.95-1.55,1.9-3.25.1-.15.2-.15.2,0,.2.4a1.049,1.049,0,0,1-.15.55q-.9,1.65-1.85,3.225A15.93,15.93,0,0,1-29.3-1.25,5.657,5.657,0,0,1-31-.1,5.424,5.424,0,0,1-33.25.35Zm17.45.1A3.519,3.519,0,0,1-18.55-.6a5.842,5.842,0,0,1-1.325-2.575A12.246,12.246,0,0,1-20.25-6.1a13.255,13.255,0,0,1,.275-2.65,5.382,5.382,0,0,1,1.025-2.3,3.12,3.12,0,0,1,1.075-.85q.625-.3.525.05a.888.888,0,0,0-.1.4.815.815,0,0,0,.45.625,2.017,2.017,0,0,0,1,.225,4.494,4.494,0,0,0,1.275-.2,4,4,0,0,0,1.225-.6,4.546,4.546,0,0,0,1.15-1.175,2.644,2.644,0,0,0,.5-1.525,1.259,1.259,0,0,0-.425-1.1,1.649,1.649,0,0,0-.975-.3,3.366,3.366,0,0,0-.55.05,2.652,2.652,0,0,0-.55.15,8.94,8.94,0,0,0-3.175,1.875,21.6,21.6,0,0,0-2.95,3.175,42.126,42.126,0,0,0-2.475,3.6q-.7,1.2-1.5,2.775A13.7,13.7,0,0,0-25.5-1.35,1.618,1.618,0,0,1-26.325-.2,2.638,2.638,0,0,1-27.5.025Q-28.1,0-28.45,0q.25-.7.675-1.9t.875-2.425q.45-1.225.75-1.925,1.3-3.2,2.825-6.85t3.3-7.275a60.076,60.076,0,0,1,3.9-6.825,31.253,31.253,0,0,1,4.6-5.525A15.578,15.578,0,0,1-6.15-36.1q.25-.05.55-.1a3.644,3.644,0,0,1,.6-.05,2.465,2.465,0,0,1,1.35.35,1.7,1.7,0,0,1,.7,1.55,5.627,5.627,0,0,1-.45,2A18,18,0,0,1-6-28.05a48.345,48.345,0,0,1-4.25,4.7q-2.9,2.75-5.55,4.925t-4.4,3.475q-1.05,2.3-1.75,4.075T-22.9-8.4a37.736,37.736,0,0,1,2.45-3.175A17.463,17.463,0,0,1-17.7-14.2a9.6,9.6,0,0,1,5.65-2.25,2.206,2.206,0,0,1,2.05.9,1.129,1.129,0,0,1,.2.5,3.367,3.367,0,0,1,.05.55,3.9,3.9,0,0,1-.5,1.875,4.109,4.109,0,0,1-1.2,1.425,6.873,6.873,0,0,1-1.875.975A6.288,6.288,0,0,1-15.4-9.85a3.435,3.435,0,0,1-1.8-.45l-.4-.25q-.1.75-.2,1.725A19.85,19.85,0,0,0-17.9-6.8q0,.5.025.975t.075.975q.1.8.325,1.825A4.645,4.645,0,0,0-16.7-1.25a1.851,1.851,0,0,0,1.45.8,2.72,2.72,0,0,0,1.65-.6A8.207,8.207,0,0,0-12.25-2.3a18.951,18.951,0,0,0,1.975-2.525Q-9.45-6.1-8.2-8.4q.1-.15.15-.15.2,0,.2.45A1.331,1.331,0,0,1-8-7.5Q-8.8-6-9.8-4.35a16.419,16.419,0,0,1-2.45,3.1A7.319,7.319,0,0,1-13.825-.075,3.938,3.938,0,0,1-15.8.45Zm-3.95-16.4a63.827,63.827,0,0,0,5.15-4.3q2.3-2.15,4.7-4.65.7-.75,1.825-2t2.2-2.7A12.988,12.988,0,0,0-4.25-32.4a5.382,5.382,0,0,0,.5-1.95q0-1.35-1.2-1.35a3.293,3.293,0,0,0-1.45.4,5.78,5.78,0,0,0-1.5,1.1,33.821,33.821,0,0,0-4.55,5.35,70.934,70.934,0,0,0-4.05,6.525Q-18.35-18.95-19.75-15.95ZM1.9.35A3.632,3.632,0,0,1-.325-.375,2.765,2.765,0,0,1-1.3-2.75,10.35,10.35,0,0,1-.45-6.6q.85-2.1,1.6-3.75.4-.8,1.075-2.175T3.7-15.25H1.35q-.15,0-.15-.25a.775.775,0,0,1,.15-.425.424.424,0,0,1,.35-.225,6.632,6.632,0,0,0,2.1-.25A3.56,3.56,0,0,0,5-17.1a10.135,10.135,0,0,0,1.575-1.8A17.611,17.611,0,0,1,8.1-20.8a3.418,3.418,0,0,1,1.375-1.05,1.845,1.845,0,0,1,1.075-.25q-.25.35-.8,1.2T8.6-19.05q-.6,1-1.1,1.85t-.65,1.15h3.3q.15,0,.15.1a.716.716,0,0,1-.225.45.612.612,0,0,1-.425.25H6.4q-.9,1.55-2.125,4.025T2.1-6.45q-.2.45-.675,1.8A7.572,7.572,0,0,0,.95-2.15,2.249,2.249,0,0,0,1.275-.9,1.238,1.238,0,0,0,2.4-.4a3.546,3.546,0,0,0,1.85-.625A6.593,6.593,0,0,0,5.8-2.3,19.3,19.3,0,0,0,7.9-5.05q.95-1.5,1.9-3.2a.4.4,0,0,1,.3-.2q.2,0,.2.3a.711.711,0,0,1-.1.4Q9.3-6.1,8.275-4.45A17.273,17.273,0,0,1,5.8-1.35,6.277,6.277,0,0,1,4.05-.175,4.971,4.971,0,0,1,1.9.35ZM17.25-.1A7.371,7.371,0,0,1,13.55,1,4.758,4.758,0,0,1,10.275-.225,4.8,4.8,0,0,1,8.9-4a10.092,10.092,0,0,1,.3-2.35A13.978,13.978,0,0,1,9.875-8.5a20.547,20.547,0,0,1,.875-1.9,15.945,15.945,0,0,1,3.275-4.275A6.721,6.721,0,0,1,18.75-16.5q2.65,0,3.7,1.45A5.891,5.891,0,0,1,23.5-11.5a10.64,10.64,0,0,1-.15,1.75,15.289,15.289,0,0,1-.575,2.2,17.093,17.093,0,0,1-1.125,2.5,3.561,3.561,0,0,0,1,.85,2.535,2.535,0,0,0,1.3.35,2.655,2.655,0,0,0,.375-.025A3.725,3.725,0,0,0,24.7-3.95a3.564,3.564,0,0,0,1.45-.75A6.242,6.242,0,0,0,27.5-6.3q.7-1.1,1-1.65t.55-.55q.15,0,.15.2a3.256,3.256,0,0,1-.3.9,13.741,13.741,0,0,1-.975,1.7A6.255,6.255,0,0,1,26.6-4.2a5.515,5.515,0,0,1-1.9.9,3.217,3.217,0,0,1-.425.075,3.857,3.857,0,0,1-.425.025A3,3,0,0,1,21.3-4.4a15.538,15.538,0,0,1-1.725,2.375A9.124,9.124,0,0,1,17.25-.1Zm-3.6.5A6.954,6.954,0,0,0,18.5-2a13.252,13.252,0,0,0,1.275-1.475A14.925,14.925,0,0,0,20.8-5.05a4.642,4.642,0,0,1-.95-1.85,8.152,8.152,0,0,1-.3-2.15,6.17,6.17,0,0,1,.25-1.75,2.766,2.766,0,0,1,.75-1.15,1.555,1.555,0,0,1,1.05-.45,1.245,1.245,0,0,1,.55.15.818.818,0,0,1,.375.275,1.257,1.257,0,0,1,.175.325,4.745,4.745,0,0,0-.675-2.775A2.611,2.611,0,0,0,19.65-15.55a3.467,3.467,0,0,0-2.05.775A11.558,11.558,0,0,0,15.625-12.9,18.217,18.217,0,0,0,14-10.65a20.593,20.593,0,0,0-1.05,1.9,20.159,20.159,0,0,0-1.225,3.3A10.355,10.355,0,0,0,11.35-2.9a3.864,3.864,0,0,0,.675,2.45A2.017,2.017,0,0,0,13.65.4Zm24.8.25A2.6,2.6,0,0,1,36.175-.3,3.868,3.868,0,0,1,35.5-2.6a6.438,6.438,0,0,1,.3-1.95,30.865,30.865,0,0,1,1.05-3q.75-1.9,1.675-4.125T40.4-15.95q.4-.9.925-2.025t1.05-2.225q.525-1.1.875-1.8.9-1.75,2.15-4.15a46.515,46.515,0,0,1,2.875-4.775A20.487,20.487,0,0,1,51.9-35a8.6,8.6,0,0,1,4.35-2.05,2.1,2.1,0,0,1,.5-.05,2.1,2.1,0,0,1,1.725.7,2.591,2.591,0,0,1,.575,1.7,3.853,3.853,0,0,1-.35,1.65,15.772,15.772,0,0,1-2.525,3.8q-1.725,2-3.7,3.875T48.95-22q-1.3,1.25-2.3,2.175T44.8-18q-.85.9-1.85,2-.55,1.25-1.075,2.525T41.3-12a19.616,19.616,0,0,1,3.075-3.325A4.954,4.954,0,0,1,47.45-16.75a2.655,2.655,0,0,1,2.275.85,3.534,3.534,0,0,1,.625,2.15,8.989,8.989,0,0,1-.4,2.55,23.424,23.424,0,0,1-.925,2.575A18.555,18.555,0,0,1,48-6.55q-.5.8-1.125,1.675A16.3,16.3,0,0,1,45.5-3.2a1.684,1.684,0,0,0,.65.95,1.848,1.848,0,0,0,1.05.3,3.638,3.638,0,0,0,1.45-.325,5.479,5.479,0,0,0,1.3-.775,12.345,12.345,0,0,0,2.1-2.25A28.739,28.739,0,0,0,53.8-8q.05-.1.075-.1H53.9q.1,0,.1.45v.375a.574.574,0,0,1-.1.325,23.241,23.241,0,0,1-1.75,2.675A9.694,9.694,0,0,1,49.95-2.2a4.944,4.944,0,0,1-2.9.95,2.866,2.866,0,0,1-1.3-.3,1.7,1.7,0,0,1-.85-1A15.141,15.141,0,0,1,41.875-.275,6.821,6.821,0,0,1,38.45.65Zm5.3-18.4q1.15-1.3,2.15-2.325T48.35-22.6q1.4-1.4,3.225-3.3t3.45-3.85A18.7,18.7,0,0,0,57.4-33.2a4.671,4.671,0,0,0,.6-1.95q0-1.45-1.7-1.2a5.61,5.61,0,0,0-3.175,1.65,18.926,18.926,0,0,0-2.9,3.625A48.9,48.9,0,0,0,47.65-26.45Q46.45-24,45.475-21.7T43.75-17.75ZM40.6-1a9.324,9.324,0,0,0,2.1-2.05,26.679,26.679,0,0,0,1.775-2.6q.775-1.3,1.175-2.05.3-.55.825-1.725t.975-2.525a7.6,7.6,0,0,0,.45-2.35,2.044,2.044,0,0,0-.275-1.125,1.072,1.072,0,0,0-.975-.425,2.568,2.568,0,0,0-1.525.725A11.439,11.439,0,0,0,43.4-13.3q-1.05,1.3-2.3,3.125A37.793,37.793,0,0,0,38.825-6.4,21.625,21.625,0,0,0,37.3-2.85a4.407,4.407,0,0,0-.15,1.05,1.409,1.409,0,0,0,.425,1.15A1.56,1.56,0,0,0,38.6-.3,3.471,3.471,0,0,0,40.6-1ZM58.45.4q-2.9,0-4.1-1.5a3.711,3.711,0,0,1-.85-1.55,6.88,6.88,0,0,1-.25-1.85,10.167,10.167,0,0,1,.3-2.425A14.561,14.561,0,0,1,54.3-9.2a19.025,19.025,0,0,1,1.85-3.325,11.182,11.182,0,0,1,2.775-2.825A6.054,6.054,0,0,1,62.5-16.5a3.025,3.025,0,0,1,2.05.65,2.506,2.506,0,0,1,.75,2,6.017,6.017,0,0,1-.95,3.125A8.835,8.835,0,0,1,61.95-8.1a5.053,5.053,0,0,1-3,1.05,3.441,3.441,0,0,1-2.45-1A11.833,11.833,0,0,0,56-6.275,9.8,9.8,0,0,0,55.8-4.3a5.57,5.57,0,0,0,.625,2.7A2.357,2.357,0,0,0,58.7-.45a4.728,4.728,0,0,0,2.325-.625A9.1,9.1,0,0,0,63.05-2.6a25.059,25.059,0,0,0,1.9-2.25,21.412,21.412,0,0,0,1.75-2.8q.1-.15.15-.15.2,0,.2.45a1.325,1.325,0,0,1-.2.65A26.65,26.65,0,0,1,65.1-3.975,17.405,17.405,0,0,1,63.05-1.6,8.511,8.511,0,0,1,61-.15,5.631,5.631,0,0,1,58.45.4Zm-1.7-9.2a2.119,2.119,0,0,0,.825.725,2.254,2.254,0,0,0,.975.225,4.346,4.346,0,0,0,2.5-.925,7.877,7.877,0,0,0,2.1-2.175,5.985,5.985,0,0,0,.625-1.45,5.826,5.826,0,0,0,.275-1.7,2.6,2.6,0,0,0-.275-1.225A1.1,1.1,0,0,0,62.7-15.85a3.474,3.474,0,0,0-2.125,1.1A13.341,13.341,0,0,0,58.25-11.9q-.35.6-.775,1.4A11.092,11.092,0,0,0,56.75-8.8ZM65.1,13.65a6.575,6.575,0,0,1-1.6.2,3.121,3.121,0,0,1-2.25-.725,2.374,2.374,0,0,1-.75-1.775,3.842,3.842,0,0,1,.6-1.925A5.673,5.673,0,0,1,62.9,7.6a23.85,23.85,0,0,1,2.825-1.675Q67,5.3,68.5,4.675T72.25,3A35.37,35.37,0,0,0,73.8-.65q.75-2.05,1.475-4.05T76.65-8.15a10.561,10.561,0,0,0-.8,1.05q-.6.85-.9,1.3-.75,1-1.85,2.425A14.169,14.169,0,0,1,70.75-.95a4.809,4.809,0,0,1-2.9,1.3A2.158,2.158,0,0,1,65.925-.7a4.812,4.812,0,0,1-.675-2.65,8.329,8.329,0,0,1,.3-2.2,16.208,16.208,0,0,1,6.2-9.15,7.705,7.705,0,0,1,2.35-1.125,9.6,9.6,0,0,1,2.8-.425,6.6,6.6,0,0,1,3.4.85l.15-.15a19.393,19.393,0,0,1,2.3-2.85,5.46,5.46,0,0,1,2.75-1.5,23.839,23.839,0,0,0-3.25,4.675A56.4,56.4,0,0,0,79.425-9.25Q78.15-6.1,77.1-3.275T75.3,1.45a17.957,17.957,0,0,0,4.975-3.775A25.879,25.879,0,0,0,84.05-7.5q.35-.7.75-.7.1,0,.1.15a1.231,1.231,0,0,1-.2.55q-.9,1.6-1.925,3.125A18.882,18.882,0,0,1,80.45-1.55,16.545,16.545,0,0,1,77.975.65,17.285,17.285,0,0,1,74.95,2.4,49.423,49.423,0,0,1,72.4,7.55a16.288,16.288,0,0,1-3.1,3.95A9.034,9.034,0,0,1,65.1,13.65ZM68.9-1.2A3.183,3.183,0,0,0,71-2.225a18.641,18.641,0,0,0,2.2-2.5q1.1-1.475,1.975-2.85T76.5-9.7q.75-1.15,1.6-2.45T80.05-15A4.336,4.336,0,0,0,78-15.5a5.819,5.819,0,0,0-2.875.8,9.9,9.9,0,0,0-2.575,2.1A19.773,19.773,0,0,0,69.7-8.625,18.739,18.739,0,0,0,68.1-4.9a6.88,6.88,0,0,0-.25,1.85,3.422,3.422,0,0,0,.225,1.3A.822.822,0,0,0,68.9-1.2ZM64.8,12.6a7.052,7.052,0,0,0,3.05-1.925,15.227,15.227,0,0,0,2.275-3.15A30.045,30.045,0,0,0,71.8,3.95a39.82,39.82,0,0,1-3.975,1.725A18.068,18.068,0,0,0,63.25,8.25,5.8,5.8,0,0,0,61.825,9.8a2.965,2.965,0,0,0-.475,1.5,1.5,1.5,0,0,0,.45,1.1,1.91,1.91,0,0,0,1.4.45,6.065,6.065,0,0,0,.75-.05A4.442,4.442,0,0,0,64.8,12.6ZM85.55.3A2.331,2.331,0,0,1,83.5-.625,3.858,3.858,0,0,1,82.85-2.9a4.745,4.745,0,0,1,.075-.825Q83-4.15,83.1-4.6a27.808,27.808,0,0,1,1.725-4.475Q86-11.55,87.1-13.5a6.46,6.46,0,0,1,1.2-1.575,3.656,3.656,0,0,1,1.2-.7q.65-.225,1.55-.525a2.851,2.851,0,0,1,.5-.15q.25-.05.55-.1a20.619,20.619,0,0,0-2.025,2.4A26.159,26.159,0,0,0,87.85-10.3Q87.2-9,86.575-7.4T85.5-4.4A9.712,9.712,0,0,0,85-2.2a2.116,2.116,0,0,0,.25,1.35.95.95,0,0,0,.8.4,2.618,2.618,0,0,0,1.625-.6A11.171,11.171,0,0,0,89.05-2.3a23.726,23.726,0,0,0,2.075-2.75q.975-1.5,1.925-3.2.15-.2.25-.2.2,0,.2.3a.711.711,0,0,1-.1.4q-.9,1.65-1.9,3.3a16.419,16.419,0,0,1-2.45,3.1A7.175,7.175,0,0,1,87.525-.2,3.909,3.909,0,0,1,85.55.3Zm6.113-19.675a1.235,1.235,0,0,1-.945-.394,1.3,1.3,0,0,1-.368-.919,1.726,1.726,0,0,1,.577-1.286,2.028,2.028,0,0,1,1.26-.6,1.279,1.279,0,0,1,.945.368,1.279,1.279,0,0,1,.368.945,1.883,1.883,0,0,1-.551,1.286A1.693,1.693,0,0,1,91.663-19.375ZM101.95.3a2.932,2.932,0,0,1-2.275-.9,3.2,3.2,0,0,1-.825-2.25,5.4,5.4,0,0,1,.25-1.5,16.2,16.2,0,0,1,2.225-4.375,28.482,28.482,0,0,0,2.525-4.325,2.854,2.854,0,0,0,.35-1.25,1.02,1.02,0,0,0-.325-.825,1.161,1.161,0,0,0-.775-.275,3.631,3.631,0,0,0-1.625.525A8.592,8.592,0,0,0,99.25-12.9q-.75.9-1.7,2.2A25.534,25.534,0,0,0,96-8.35q-1,1.7-1.8,3.425T92.8-1.75A2.714,2.714,0,0,1,91.6-.275,2.694,2.694,0,0,1,90.25,0a4.9,4.9,0,0,0-1,0Q90.65-2.75,92-5.8a56.815,56.815,0,0,0,2.3-6.1q.45-1.4.75-2.725a6.594,6.594,0,0,0,.25-1.725v-.1q0-.4.4-.2a1.871,1.871,0,0,1,.9,1.025,4.368,4.368,0,0,1,.25,1.525,8.958,8.958,0,0,1-.25,2.025A12.509,12.509,0,0,1,96-10.15q.65-.9,1.4-1.825a18.266,18.266,0,0,1,1.65-1.775,13.66,13.66,0,0,1,2.25-1.825,4.7,4.7,0,0,1,2.6-.775,2.773,2.773,0,0,1,1.975.6,2.115,2.115,0,0,1,.625,1.6,6.026,6.026,0,0,1-.6,2.4,24.681,24.681,0,0,1-1.575,3.1q-.925,1.55-1.675,3-.15.3-.475.925A9.465,9.465,0,0,0,101.6-3.35q-.1.35-.2.725a3,3,0,0,0-.1.775,1.946,1.946,0,0,0,.225.925A.9.9,0,0,0,102.4-.5a2.688,2.688,0,0,0,1.625-.575A7.853,7.853,0,0,0,105.35-2.3a19.986,19.986,0,0,0,2.125-2.775Q108.45-6.6,109.4-8.3q.15-.2.2-.2.2,0,.2.45a.818.818,0,0,1-.1.45q-.9,1.65-1.9,3.225a17.73,17.73,0,0,1-2.45,3.025,7.448,7.448,0,0,1-1.5,1.15A3.677,3.677,0,0,1,101.95.3ZM119.3.35a3.313,3.313,0,0,1-2.05-.725,2.8,2.8,0,0,1-.95-2.375,10.35,10.35,0,0,1,.85-3.85q.85-2.1,1.6-3.75.4-.8,1.075-2.175T121.3-15.25h-2.35q-.15,0-.15-.25a.775.775,0,0,1,.15-.425.424.424,0,0,1,.35-.225,6.632,6.632,0,0,0,2.1-.25,3.56,3.56,0,0,0,1.2-.7,10.135,10.135,0,0,0,1.575-1.8,17.611,17.611,0,0,1,1.525-1.9,3.418,3.418,0,0,1,1.375-1.05,1.845,1.845,0,0,1,1.075-.25q-.25.35-.8,1.2t-1.15,1.85q-.6,1-1.1,1.85t-.65,1.15h6.2q1.3-2.85,2.975-6a54.176,54.176,0,0,1,3.725-6.025A30.409,30.409,0,0,1,141.8-33.1a13.9,13.9,0,0,1,5.1-3l.6-.1a3.644,3.644,0,0,1,.6-.05,2.37,2.37,0,0,1,1.3.35,1.754,1.754,0,0,1,.7,1.6,5.544,5.544,0,0,1-.45,1.95,17.644,17.644,0,0,1-2.625,4.3,51.061,51.061,0,0,1-4.275,4.7q-3.05,2.95-5.85,5.2t-4.5,3.55q-1,2.15-1.65,3.725T129.9-8.6q.8-1.2,1.825-2.625a18.426,18.426,0,0,1,1.825-2.225,17.038,17.038,0,0,1,2.3-1.95,4.712,4.712,0,0,1,2.25-.9,3.548,3.548,0,0,1,2.45.425,1.982,1.982,0,0,1,.75,1.675,6.11,6.11,0,0,1-.6,2.45,26.883,26.883,0,0,1-1.55,3.1q-.9,1.55-1.65,3-.2.4-.725,1.525A7.8,7.8,0,0,0,136.1-2a.683.683,0,0,1-.025.15.822.822,0,0,0-.025.2,1.065,1.065,0,0,0,.3.825,1,1,0,0,0,.7.275,2.657,2.657,0,0,0,1.6-.55,7.505,7.505,0,0,0,1.3-1.2,19.3,19.3,0,0,0,2.1-2.75q.95-1.5,1.9-3.2a.4.4,0,0,1,.3-.2q.2,0,.2.3a.711.711,0,0,1-.1.4q-.9,1.65-1.925,3.3a17.273,17.273,0,0,1-2.475,3.1,8.211,8.211,0,0,1-1.5,1.175,3.543,3.543,0,0,1-1.9.525,2.685,2.685,0,0,1-2.375-.975A3.734,3.734,0,0,1,133.5-2.8a5.463,5.463,0,0,1,.35-1.9,17.5,17.5,0,0,1,2.35-4.2,23.268,23.268,0,0,0,2.5-4.15,2.56,2.56,0,0,0,.35-1.2,1.12,1.12,0,0,0-.35-.9,1.134,1.134,0,0,0-.75-.3,3.6,3.6,0,0,0-2.075.825A12.6,12.6,0,0,0,133.7-12.55q-.95,1.1-1.95,2.525T129.85-7Q129-5.55,128.1-3.975T126.65-1.3a2.37,2.37,0,0,1-.85,1.1,1.759,1.759,0,0,1-.85.25,3.222,3.222,0,0,1-.4-.025A2.867,2.867,0,0,0,124.2,0a40.312,40.312,0,0,1,1.675-4.675Q127.1-7.65,128.8-11.75q.35-.8.7-1.675t.8-1.825H124q-.9,1.55-2.125,4.025T119.7-6.45q-.1.3-.4,1.075a13.652,13.652,0,0,0-.525,1.7,7.324,7.324,0,0,0-.225,1.725,2.236,2.236,0,0,0,.25,1.1.939.939,0,0,0,.9.45,2.6,2.6,0,0,0,1.5-.525A4.037,4.037,0,0,0,122.35-2.1q.15-.2.2-.2.15,0,.15.3a1.1,1.1,0,0,1-.35.8,6.12,6.12,0,0,1-1.325,1.075A3.236,3.236,0,0,1,119.3.35ZM132.85-15.6a58.262,58.262,0,0,0,5.4-4.45q2.4-2.25,4.85-4.85.7-.75,1.825-2t2.225-2.7a12.5,12.5,0,0,0,1.65-2.8,5.082,5.082,0,0,0,.5-1.95q0-1.35-1.25-1.35a3.293,3.293,0,0,0-1.45.4,5.78,5.78,0,0,0-1.5,1.1,35.6,35.6,0,0,0-4.675,5.475,74.791,74.791,0,0,0-4.2,6.675Q134.3-18.6,132.85-15.6ZM149.45.45a6.039,6.039,0,0,1-4.425-1.55,5.559,5.559,0,0,1-1.575-4.15,10.078,10.078,0,0,1,.2-1.925A11.386,11.386,0,0,1,144.3-9.3a18.485,18.485,0,0,1,1.8-3.25,10.742,10.742,0,0,1,2.65-2.7,6.777,6.777,0,0,1,3.45-1.25,4.126,4.126,0,0,1,1.3.1,2.225,2.225,0,0,1,1.05.6,1.964,1.964,0,0,1,.575.875,3.378,3.378,0,0,1,.175,1.075,6.016,6.016,0,0,1-.95,3.125,8.835,8.835,0,0,1-2.4,2.625,5.053,5.053,0,0,1-3,1.05,3.441,3.441,0,0,1-2.45-1,11.071,11.071,0,0,0-.45,3.1,5.723,5.723,0,0,0,.875,3.225A3.351,3.351,0,0,0,149.95-.4a6.145,6.145,0,0,0,3.725-1.15,11.61,11.61,0,0,0,2.75-2.875Q157.6-6.15,158.5-7.75q.1-.15.2-.15.2,0,.2.4a1.245,1.245,0,0,1-.15.55,35.178,35.178,0,0,1-2.175,3.4,11.416,11.416,0,0,1-2.95,2.85A7.354,7.354,0,0,1,149.45.45Zm-2.7-9.25a2.119,2.119,0,0,0,.825.725,2.254,2.254,0,0,0,.975.225,4.346,4.346,0,0,0,2.5-.925,7.877,7.877,0,0,0,2.1-2.175,5.985,5.985,0,0,0,.625-1.45,5.826,5.826,0,0,0,.275-1.7,2.6,2.6,0,0,0-.275-1.225,1.1,1.1,0,0,0-1.075-.525,3.474,3.474,0,0,0-2.125,1.1,13.341,13.341,0,0,0-2.325,2.85q-.35.6-.775,1.4A11.093,11.093,0,0,0,146.75-8.8Zm29.95-9.8a1.42,1.42,0,0,1-1.05-.4,1.357,1.357,0,0,1-.4-1,1.9,1.9,0,0,1,.65-1.45,2.033,2.033,0,0,1,1.4-.6,1.473,1.473,0,0,1,1.05.375,1.275,1.275,0,0,1,.4.975,2.008,2.008,0,0,1-.65,1.45A1.959,1.959,0,0,1,176.7-18.6ZM160.4,14.1a6.575,6.575,0,0,1-1.6.2,3.113,3.113,0,0,1-2.2-.7,2.294,2.294,0,0,1-.75-1.75,3.842,3.842,0,0,1,.6-1.925,5.673,5.673,0,0,1,1.8-1.825,28.69,28.69,0,0,1,2.8-1.7q1.25-.65,2.75-1.275t3.75-1.675q1.6-3.75,2.9-7.25t2.3-6.95q.25-.75.475-1.675a6.991,6.991,0,0,0,.225-1.625q0-1.1-.8-1.1a1.626,1.626,0,0,0-1.15.55,5.649,5.649,0,0,0-.95,1.275q-.4.725-.65,1.175-.9,1.8-1.575,3.075T166.85-6.35q-.25.4-.35.4-.2,0-.2-.35a1.245,1.245,0,0,1,.15-.55q.65-1.15,1.3-2.425t1.175-2.325q.525-1.05.675-1.4a9.73,9.73,0,0,1,1.45-2.15,2.931,2.931,0,0,1,2.3-.95,2,2,0,0,1,1.775.7,2.867,2.867,0,0,1,.475,1.65,7.467,7.467,0,0,1-.175,1.6q-.175.8-.325,1.4-.3,1.35-.875,3.1t-1.275,3.6q-.7,1.85-1.35,3.525T170.5,2.3A32.533,32.533,0,0,0,173.65.575a14.853,14.853,0,0,0,3.4-2.875,16.624,16.624,0,0,0,2.1-2.725q.95-1.525,1.9-3.225.15-.2.25-.2.2,0,.2.3a.711.711,0,0,1-.1.4q-.9,1.65-1.9,3.3a16.419,16.419,0,0,1-2.45,3.1,23.675,23.675,0,0,1-3.6,2.9A16.023,16.023,0,0,1,170,3.3a47.553,47.553,0,0,1-2.5,5.05,14.706,14.706,0,0,1-2.975,3.725A9.147,9.147,0,0,1,160.4,14.1Zm-.3-1a7.022,7.022,0,0,0,3.1-1.925A14.313,14.313,0,0,0,165.45,8q.95-1.8,1.7-3.6a37.162,37.162,0,0,1-4,1.775A19.115,19.115,0,0,0,158.6,8.7a6.028,6.028,0,0,0-1.45,1.575,2.986,2.986,0,0,0-.5,1.525,1.457,1.457,0,0,0,.475,1.1,2,2,0,0,0,1.425.45,5.487,5.487,0,0,0,.725-.05A4.527,4.527,0,0,0,160.1,13.1ZM184.8,1a4.758,4.758,0,0,1-3.275-1.225A4.8,4.8,0,0,1,180.15-4a10.5,10.5,0,0,1,.575-3.325A21.374,21.374,0,0,1,182-10.4a15.945,15.945,0,0,1,3.275-4.275A6.721,6.721,0,0,1,190-16.5q2.65,0,3.7,1.45a5.891,5.891,0,0,1,1.05,3.55,10.64,10.64,0,0,1-.15,1.75A14.94,14.94,0,0,1,192.95-5a2.774,2.774,0,0,0,.925.825,2.546,2.546,0,0,0,1.275.325,3.276,3.276,0,0,0,2.05-.65,6.3,6.3,0,0,0,1.475-1.625Q199.3-7.1,199.75-7.95q.3-.55.55-.55.15,0,.15.2a3.256,3.256,0,0,1-.3.9,12.734,12.734,0,0,1-2,2.95,3.887,3.887,0,0,1-3,1.25,3.052,3.052,0,0,1-2.6-1.2,14.056,14.056,0,0,1-3.4,3.85A6.953,6.953,0,0,1,184.8,1Zm.1-.6A6.954,6.954,0,0,0,189.75-2a13.254,13.254,0,0,0,1.275-1.475A14.925,14.925,0,0,0,192.05-5.05a4.555,4.555,0,0,1-.925-1.625,5.583,5.583,0,0,1-.275-1.675,5.253,5.253,0,0,1,.45-2.225,1.389,1.389,0,0,1,1.25-.975,1.074,1.074,0,0,1,.775.4A2.167,2.167,0,0,1,193.8-9.9a7.152,7.152,0,0,0,.15-1.5,5.684,5.684,0,0,0-.7-3.025,2.55,2.55,0,0,0-2.35-1.125,3.467,3.467,0,0,0-2.05.775,11.558,11.558,0,0,0-1.975,1.875,18.216,18.216,0,0,0-1.625,2.25,20.6,20.6,0,0,0-1.05,1.9,20.159,20.159,0,0,0-1.225,3.3A10.355,10.355,0,0,0,182.6-2.9a3.864,3.864,0,0,0,.675,2.45A2.017,2.017,0,0,0,184.9.4ZM201.2.3a2.6,2.6,0,0,1-2.225-.9,3.562,3.562,0,0,1-.675-2.2,11.07,11.07,0,0,1,.675-3.6,29.727,29.727,0,0,1,1.575-3.725q.9-1.775,1.45-2.775a5.171,5.171,0,0,1,2.225-2.3A7.5,7.5,0,0,1,207-15.65a3.307,3.307,0,0,0-1.3,1.175,22.848,22.848,0,0,0-1.675,2.525,34.272,34.272,0,0,0-1.65,3.225,25.983,25.983,0,0,0-1.25,3.35A10.166,10.166,0,0,0,200.65-2.6a2.72,2.72,0,0,0,.325,1.4A1.1,1.1,0,0,0,202-.65a2.846,2.846,0,0,0,1.4-.475A6.5,6.5,0,0,0,204.85-2.3a22.051,22.051,0,0,0,3.575-5.375Q209.8-10.6,211.5-13.5a5.171,5.171,0,0,1,2.225-2.3,7.5,7.5,0,0,1,2.775-.45,3.541,3.541,0,0,0-1.35,1.225,22.527,22.527,0,0,0-1.775,2.675,34.562,34.562,0,0,0-1.725,3.425A33.218,33.218,0,0,0,210.325-5.4a10.112,10.112,0,0,0-.525,2.9,2.478,2.478,0,0,0,.325,1.325,1.072,1.072,0,0,0,.975.525,2.75,2.75,0,0,0,1.4-.5,8.152,8.152,0,0,0,1.45-1.15,19.306,19.306,0,0,0,2.1-2.75q.95-1.5,1.9-3.2.15-.2.25-.2.2,0,.2.3a.711.711,0,0,1-.1.4q-.9,1.65-1.9,3.3a16.419,16.419,0,0,1-2.45,3.1,6.923,6.923,0,0,1-1.875,1.325A3.327,3.327,0,0,1,209.95.3a2.908,2.908,0,0,1-2-1.125,3.667,3.667,0,0,1-.6-2.125,7.982,7.982,0,0,1,.3-2.1q-.6.95-1.275,1.9a14.067,14.067,0,0,1-1.525,1.8,6.157,6.157,0,0,1-1.675,1.175A4.468,4.468,0,0,1,201.2.3ZM227.35-.9A6.3,6.3,0,0,1,225.675.125,4.187,4.187,0,0,1,224.15.45a2.731,2.731,0,0,1-2.075-.875,3.251,3.251,0,0,1-.825-2.325,6.674,6.674,0,0,1,.4-2.05,12.349,12.349,0,0,1,1.95-3.45q1.3-1.65,2.5-3.35a3.268,3.268,0,0,0,.75-1.95,1.334,1.334,0,0,0-.275-.85,1.3,1.3,0,0,0-.975-.4,3.718,3.718,0,0,0-.9-.1h-2.95a1.859,1.859,0,0,1-.45-.05,13.171,13.171,0,0,1-.825,2.8q-.625,1.55-1.425,3.1t-1.55,2.8q-.2.3-.35.3t-.15-.3a.9.9,0,0,1,.15-.55q1.05-2.05,2.025-4.025A14.552,14.552,0,0,0,220.5-14.95a3.359,3.359,0,0,1-1.55-2.25q-.05-.25-.075-.475a3.855,3.855,0,0,1-.025-.425,2.914,2.914,0,0,1,.375-1.525,1.055,1.055,0,0,1,.875-.625q.7,0,1.15,1.35a4.92,4.92,0,0,1,.15.775,7.06,7.06,0,0,1,.05.825q0,.45-.025.825a4.948,4.948,0,0,1-.075.625,5.087,5.087,0,0,0,.925.15q.575.05,1.275.05,1.05,0,2.2-.075t1.95-.075a1.683,1.683,0,0,1,1.3.4,1.464,1.464,0,0,1,.35,1,4.15,4.15,0,0,1-.375,1.625,13.591,13.591,0,0,1-.725,1.475q-.65,1.2-1.225,2.125T225.75-7.2a14.179,14.179,0,0,0-1.525,2.925,6.847,6.847,0,0,0-.475,2.225q0,1.55,1.15,1.55a4.216,4.216,0,0,0,2.45-1.35,11.79,11.79,0,0,0,1.775-2.025,26.074,26.074,0,0,0,1.5-2.4Q231.3-7.5,231.75-8.3q.1-.15.2-.15.2,0,.2.4a1.049,1.049,0,0,1-.15.55q-.85,1.55-1.95,3.4A12.528,12.528,0,0,1,227.35-.9ZM240.65.3a2.932,2.932,0,0,1-2.275-.9,3.2,3.2,0,0,1-.825-2.25,5.4,5.4,0,0,1,.25-1.5,16.2,16.2,0,0,1,2.225-4.375,28.482,28.482,0,0,0,2.525-4.325,2.854,2.854,0,0,0,.35-1.25,1.02,1.02,0,0,0-.325-.825,1.161,1.161,0,0,0-.775-.275,3.631,3.631,0,0,0-1.625.525A8.592,8.592,0,0,0,237.95-12.9q-.75.9-1.7,2.2a25.536,25.536,0,0,0-1.55,2.35q-1,1.7-1.8,3.425T231.5-1.75a2.714,2.714,0,0,1-1.2,1.475A2.694,2.694,0,0,1,228.95,0a4.9,4.9,0,0,0-1,0q1.4-2.75,2.75-5.8a56.814,56.814,0,0,0,2.3-6.1q.45-1.4.75-2.725A6.594,6.594,0,0,0,234-16.35v-.1q0-.4.4-.2a1.871,1.871,0,0,1,.9,1.025,4.368,4.368,0,0,1,.25,1.525,8.957,8.957,0,0,1-.25,2.025,12.51,12.51,0,0,1-.6,1.925q.65-.9,1.4-1.825a18.267,18.267,0,0,1,1.65-1.775A13.659,13.659,0,0,1,240-15.575a4.7,4.7,0,0,1,2.6-.775,2.773,2.773,0,0,1,1.975.6,2.115,2.115,0,0,1,.625,1.6,6.026,6.026,0,0,1-.6,2.4,24.68,24.68,0,0,1-1.575,3.1q-.925,1.55-1.675,3-.15.3-.475.925A9.467,9.467,0,0,0,240.3-3.35q-.1.35-.2.725a3,3,0,0,0-.1.775,1.946,1.946,0,0,0,.225.925A.9.9,0,0,0,241.1-.5a2.688,2.688,0,0,0,1.625-.575A7.853,7.853,0,0,0,244.05-2.3a19.986,19.986,0,0,0,2.125-2.775Q247.15-6.6,248.1-8.3q.15-.2.2-.2.2,0,.2.45a.818.818,0,0,1-.1.45q-.9,1.65-1.9,3.225a17.731,17.731,0,0,1-2.45,3.025,7.448,7.448,0,0,1-1.5,1.15A3.677,3.677,0,0,1,240.65.3Zm11.9.1q-2.9,0-4.1-1.5a3.711,3.711,0,0,1-.85-1.55,6.88,6.88,0,0,1-.25-1.85,10.167,10.167,0,0,1,.3-2.425A14.56,14.56,0,0,1,248.4-9.2a19.025,19.025,0,0,1,1.85-3.325,11.182,11.182,0,0,1,2.775-2.825A6.054,6.054,0,0,1,256.6-16.5a3.025,3.025,0,0,1,2.05.65,2.506,2.506,0,0,1,.75,2,6.017,6.017,0,0,1-.95,3.125,8.835,8.835,0,0,1-2.4,2.625,5.053,5.053,0,0,1-3,1.05,3.441,3.441,0,0,1-2.45-1,11.833,11.833,0,0,0-.5,1.775,9.8,9.8,0,0,0-.2,1.975,5.57,5.57,0,0,0,.625,2.7A2.357,2.357,0,0,0,252.8-.45a4.728,4.728,0,0,0,2.325-.625A9.094,9.094,0,0,0,257.15-2.6a25.061,25.061,0,0,0,1.9-2.25,21.413,21.413,0,0,0,1.75-2.8q.1-.15.15-.15.2,0,.2.45a1.325,1.325,0,0,1-.2.65,26.651,26.651,0,0,1-1.75,2.725A17.406,17.406,0,0,1,257.15-1.6,8.511,8.511,0,0,1,255.1-.15,5.631,5.631,0,0,1,252.55.4Zm-1.7-9.2a2.119,2.119,0,0,0,.825.725,2.254,2.254,0,0,0,.975.225,4.346,4.346,0,0,0,2.5-.925,7.877,7.877,0,0,0,2.1-2.175,5.987,5.987,0,0,0,.625-1.45,5.826,5.826,0,0,0,.275-1.7,2.6,2.6,0,0,0-.275-1.225,1.1,1.1,0,0,0-1.075-.525,3.474,3.474,0,0,0-2.125,1.1,13.341,13.341,0,0,0-2.325,2.85q-.35.6-.775,1.4A11.093,11.093,0,0,0,250.85-8.8ZM262.4,14.1a6.575,6.575,0,0,1-1.6.2,3.113,3.113,0,0,1-2.2-.7,2.294,2.294,0,0,1-.75-1.75,3.842,3.842,0,0,1,.6-1.925,5.673,5.673,0,0,1,1.8-1.825,26.952,26.952,0,0,1,2.825-1.7q1.275-.65,2.775-1.275T269.6,3.45q.25-.55.55-1.3l1-2.5q.7-1.75,2.05-5.2-1.1,1.35-2.2,2.5t-1.8,1.8a10.671,10.671,0,0,1-1.925,1.175A4.347,4.347,0,0,1,265.45.35a1.877,1.877,0,0,1-1.675-.7A2.867,2.867,0,0,1,263.3-2a6.438,6.438,0,0,1,.225-1.65,13.85,13.85,0,0,1,.525-1.6,35.881,35.881,0,0,1,1.525-3.325q.825-1.575,1.625-3.275.2-.4.575-1.3a4.328,4.328,0,0,0,.375-1.65q0-.85-.75-.85a2.13,2.13,0,0,0-1.425.675A8.045,8.045,0,0,0,264.7-13.45q-.55.85-.85,1.35l-.475.95q-.475.95-1.2,2.325T260.7-6.25a.452.452,0,0,1-.4.25.177.177,0,0,1-.2-.2,2.407,2.407,0,0,1,.25-.6q1.1-1.95,1.725-3.25t1.425-2.7a18.9,18.9,0,0,1,1.85-2.75,4.818,4.818,0,0,1,1.525-1.125A3.906,3.906,0,0,1,268.5-17a2.423,2.423,0,0,1,1.925.625,2.291,2.291,0,0,1,.525,1.525,5.232,5.232,0,0,1-.4,1.95,17.762,17.762,0,0,1-.8,1.75q-1.25,2.2-2.05,3.825T266.3-4.2a5.022,5.022,0,0,0-.45,1.8q0,1.3,1.1,1.3a2.911,2.911,0,0,0,1.85-.8,17.786,17.786,0,0,0,4.3-5.05q1.65-2.9,3.15-6.05a24.233,24.233,0,0,1,1.25-2.175,7.565,7.565,0,0,1,1.85-2,3.688,3.688,0,0,1,2.55-.725,10.306,10.306,0,0,0-1.675,2.4q-.975,1.75-2.05,4.1T276.05-6.5Q275-3.95,274.075-1.625T272.5,2.3A22.285,22.285,0,0,0,275.675.625,15.451,15.451,0,0,0,279.1-2.3a15.646,15.646,0,0,0,2.075-2.725Q282.1-6.55,283.05-8.25a.4.4,0,0,1,.3-.2q.2,0,.2.3a.711.711,0,0,1-.1.4q-.9,1.65-1.9,3.3a16.419,16.419,0,0,1-2.45,3.1,28.176,28.176,0,0,1-3.625,2.925A15.005,15.005,0,0,1,272.05,3.35a48.875,48.875,0,0,1-2.525,4.95,15.292,15.292,0,0,1-3.025,3.75A9.177,9.177,0,0,1,262.4,14.1Zm-.3-1a7.023,7.023,0,0,0,3.1-1.925A14.965,14.965,0,0,0,267.475,8a31.642,31.642,0,0,0,1.675-3.6,37.163,37.163,0,0,1-4,1.775A19.115,19.115,0,0,0,260.6,8.7a6.23,6.23,0,0,0-1.45,1.55,2.861,2.861,0,0,0-.5,1.5,1.478,1.478,0,0,0,.5,1.15,2.1,2.1,0,0,0,1.45.45,5.156,5.156,0,0,0,.675-.05A4.527,4.527,0,0,0,262.1,13.1Z" transform="translate(275.65 37.1)" fill="#fff"/>
</svg>
