<?xml version="1.0" encoding="utf-8"?>
<!-- Generator: Adobe Illustrator 22.1.0, SVG Export Plug-In . SVG Version: 6.00 Build 0)  -->
<svg version="1.1" id="Layer_1" xmlns="http://www.w3.org/2000/svg" xmlns:xlink="http://www.w3.org/1999/xlink" x="0px" y="0px"
	 viewBox="0 0 390 390" style="enable-background:new 0 0 390 390;" xml:space="preserve">
<style type="text/css">
	.st0{fill:#FFFFFF;}
	.st1{fill:#FFFFFF;stroke:#000000;stroke-miterlimit:10;}
</style>
<g id="zimmer-logo" transform="translate(0.046 0.046)">
	<path id="Subtraction_5" class="st0" d="M195,390c-13.2,0-26.4-1.3-39.3-4c-24.9-5.1-48.6-15.1-69.7-29.3
		c-31.4-21.2-55.9-51-70.6-85.8c-5-11.8-8.8-24.1-11.4-36.6c-5.3-25.9-5.3-52.7,0-78.6C9,130.7,19,107,33.3,85.9
		c21.2-31.4,51-55.9,85.8-70.7c11.8-5,24.1-8.8,36.6-11.4c25.9-5.3,52.7-5.3,78.6,0C259.2,9,282.9,19,304,33.3
		c31.4,21.2,55.9,51,70.6,85.8c5,11.8,8.8,24.1,11.4,36.6c5.3,25.9,5.3,52.7,0,78.6c-5.1,24.9-15.1,48.6-29.3,69.7
		c-21.2,31.4-51,55.9-85.8,70.6c-11.8,5-24.1,8.8-36.6,11.4C221.3,388.6,208.2,390,195,390z M195,15.1C95.8,15.1,15.1,95.8,15.1,195
		S95.8,374.8,195,374.8S374.8,294.1,374.8,195S294.1,15.1,195,15.1L195,15.1z"/>
	<path id="Path_3794" class="st0" d="M71.3,184.7V64.2h255.5L197.2,315.1c0,0,42,1.6,78.7-31.4s41.2-77.6,41.2-77.6v114.6H62.4
		L195,70.1c0,0-45.2-3.7-84.1,33.1S71.3,184.7,71.3,184.7z"/>
</g>
<path class="st1" d="M194.7-350c-296.3,0-536.5,240.2-536.5,536.5S-101.6,723,194.7,723s536.5-240.2,536.5-536.5S491-350,194.7-350z
	 M196.1,374.9c-99.9,0-180.9-80.5-180.9-179.9s81-179.9,180.9-179.9S377,95.7,377,195S296,374.9,196.1,374.9z"/>
</svg>
